<svg xmlns="http://www.w3.org/2000/svg" width="15.702" height="19.325" viewBox="0 0 15.702 19.325">
  <g id="bucket" transform="translate(0 0)">
    <path id="Path_7117" data-name="Path 7117" d="M18.7,3.02C18.7,1.038,14.752,0,10.851,0S3,1.038,3,3.02a1.366,1.366,0,0,0,.023.181L4.829,17.071c.207,1.548,3.267,2.254,6.022,2.254s5.814-.705,6.022-2.256L18.679,3.2A1.367,1.367,0,0,0,18.7,3.02ZM10.851,1.208c4.3,0,6.643,1.2,6.643,1.812s-2.345,1.812-6.643,1.812S4.208,3.635,4.208,3.02,6.553,1.208,10.851,1.208Z" transform="translate(-3 0)" fill="#0e273b"/>
  </g>
</svg>
