<svg xmlns="http://www.w3.org/2000/svg" width="21" height="22" viewBox="0 0 21 22">
    <defs>
        <style>
            .cls-1{fill:#fff}
        </style>
    </defs>
    <g id="button-pause" transform="translate(-1 -1)">
        <path id="Path_5840" d="M7 1H2a1 1 0 0 0-1 1v20a1 1 0 0 0 1 1h5a1 1 0 0 0 1-1V2a1 1 0 0 0-1-1z" class="cls-1" data-name="Path 5840"/>
        <path id="Path_5841" d="M22 1h-5a1 1 0 0 0-1 1v20a1 1 0 0 0 1 1h5a1 1 0 0 0 1-1V2a1 1 0 0 0-1-1z" class="cls-1" data-name="Path 5841" transform="translate(-1)"/>
    </g>
</svg>
