<svg xmlns="http://www.w3.org/2000/svg" id="cart-simple-add" width="24" height="24" viewBox="0 0 24 24">
    <defs>
        <style>
            .cls-1{fill:#ffffff}
        </style>
    </defs>
    <circle id="Ellipse_401" cx="2.5" cy="2.5" r="2.5" class="cls-1" data-name="Ellipse 401" transform="translate(4 19)"/>
    <circle id="Ellipse_402" cx="2.5" cy="2.5" r="2.5" class="cls-1" data-name="Ellipse 402" transform="translate(17 19)"/>
    <path id="Path_5829" d="M21 10a5 5 0 0 1-5-5H5.542L4.991.867A1 1 0 0 0 4 0H0v2h3.125l1.884 14.132A1 1 0 0 0 6 17h14a1 1 0 0 0 .958-.713L22.965 9.6A4.988 4.988 0 0 1 21 10z" class="cls-1" data-name="Path 5829"/>
    <path id="Path_5830" d="M24 4h-2V2h-2v2h-2v2h2v2h2V6h2z" class="cls-1" data-name="Path 5830"/>
</svg>
