<svg xmlns="http://www.w3.org/2000/svg" id="cogwheel" width="24" height="24" viewBox="0 0 24 24">
    <defs>
        <style>
            .cls-1{fill:#fff}
        </style>
    </defs>
    <path id="Path_62" d="M24 14v-4l-3.338-.417a8.934 8.934 0 0 0-.826-2L21.9 4.929 19.071 2.1l-2.653 2.064a8.934 8.934 0 0 0-2-.826L14 0h-4l-.417 3.338a8.934 8.934 0 0 0-2 .826L4.929 2.1 2.1 4.929l2.064 2.653a8.934 8.934 0 0 0-.826 2L0 10v4l3.338.417a8.934 8.934 0 0 0 .826 2L2.1 19.071 4.929 21.9l2.653-2.063a8.934 8.934 0 0 0 2 .826L10 24h4l.417-3.338a8.934 8.934 0 0 0 2-.826l2.654 2.064 2.829-2.829-2.063-2.653a8.934 8.934 0 0 0 .826-2zm-12 2a4 4 0 1 1 4-4 4 4 0 0 1-4 4z" class="cls-1" data-name="Path 62"/>
</svg>
