<svg xmlns="http://www.w3.org/2000/svg" width="178.096" height="170" viewBox="0 0 178.096 170">
    <defs>
        <style>
            .cls-1{fill:#83329c}.cls-2{fill:#551f65}
        </style>
    </defs>
    <g id="Group_8399" data-name="Group 8399" transform="translate(-3.034 .001)">
        <g id="broken-heart" transform="translate(3.035)">
            <path id="Path_6900" d="M131.19 5.225h-.461a49.231 49.231 0 0 0-38.2 18.008A49.2 49.2 0 0 0 54.362 5.225h-.474A50.62 50.62 0 0 0 3.483 55.537c0 47.641 82.976 115.892 86.486 118.774a4.048 4.048 0 0 0 5.124 0c3.53-2.882 86.486-71.133 86.486-118.79a50.6 50.6 0 0 0-50.389-50.3z" class="cls-1" data-name="Path 6900" transform="translate(-3.483 -5.224)"/>
            <path id="Path_6901" d="M57.938 20.792a49.057 49.057 0 0 0-8.593-8.164L29.6 55.4l36.434 28.337-16.191 48.572 36.429-52.62-32.381-28.333L76.035 7.067a49.163 49.163 0 0 0-18.1 13.726z" class="cls-2" data-name="Path 6901" transform="translate(31.109 -2.784)"/>
        </g>
    </g>
</svg>
