<?xml version="1.0" encoding="utf-8"?>
<!-- Generator: Adobe Illustrator 23.0.4, SVG Export Plug-In . SVG Version: 6.00 Build 0)  -->
<svg version="1.1" id="Layer_1" xmlns="http://www.w3.org/2000/svg" xmlns:xlink="http://www.w3.org/1999/xlink" x="0px" y="0px"
	 viewBox="0 0 190.6 180.4" style="enable-background:new 0 0 190.6 180.4;" xml:space="preserve">
<style type="text/css">
	.st0{fill:#4C5055;}
	.st1{fill:none;}
	.st2{fill:#FFFFFF;}
	.st3{fill:#00ACD8;}
	.st4{enable-background:new    ;}
</style>
<g id="Group_6965" transform="translate(-623.907 -76.344)">
	<g id="Group_6964" transform="translate(623.907 74.783)">
		<g id="Group_6952" transform="translate(0 41.065)">
			<g id="Group_6948" transform="translate(15.399 94.455)">
				<g id="Group_6947" transform="translate(5.094 2.136)">
					<g id="Group_6946">
						<path id="Path_5828" class="st0" d="M139.9,44.3L144.6,0H140l-4.2,39.3L6.9,30.8L4.6,2H0l2.5,33.1L139.9,44.3z"/>
					</g>
				</g>
			</g>
			<g id="Group_6951">
				<rect id="Rectangle_1863" y="0" class="st1" width="190.6" height="61.6"/>
				<g id="Group_6950" transform="translate(4.863 2.128)">
					<g id="Group_6949">
						<path id="Path_5829" class="st0" d="M174.7,16.5L12.6,0L0,42.9l180.3,6L174.7,16.5z"/>
						<path id="Path_5830" class="st2" d="M107.5,51.1l-33.8-0.9l1.3-45l33.8,3.1L107.5,51.1z"/>
					</g>
				</g>
			</g>
		</g>
		<g id="Group_6963" transform="translate(35.932)">
			<g id="Group_6957" transform="translate(0 48.123)">
				<g id="Group_6956" transform="translate(4.71 1.638)">
					<g id="Group_6955">
						<g id="Group_6953" transform="translate(0 2.838)">
							<path id="Path_5831" class="st3" d="M61.3,1L5.2,25.8L0,0L61.3,1z"/>
						</g>
						<g id="Group_6954" transform="translate(61.289)">
							<path id="Path_5832" class="st3" d="M0,3.8L48.3,0l-5.1,25.8L0,3.8z"/>
						</g>
					</g>
				</g>
			</g>
			<g id="Group_6962" transform="translate(9.625)">
				<g id="Group_6961" transform="translate(4.675 1.56)">
					<g id="Group_6960">
						<g id="Group_6958" transform="translate(0 4.653)">
							<path id="Path_5833" class="st3" d="M51.7,47.4c-2.8,0.5-5.7,0.7-8.5,0.8c-2.9,0.1-5.7,0-8.5-0.2c-2.9-0.2-5.7-0.6-8.6-1.1
								c-2.9-0.5-5.8-1.3-8.6-2.3c-3.1-1.1-6-2.5-8.6-4.3c-1.5-1-2.9-2.3-4.1-3.6c-1.4-1.5-2.6-3.3-3.4-5.3C0.4,29.3,0,27.1,0,24.8
								c0-2.1,0.4-4.2,1.1-6.2C3.7,11.8,8.5,6.2,14.7,2.4c1.9-1,3.9-1.8,6-2.2c2.2-0.4,4.5-0.4,6.8,0.1c2,0.5,4,1.3,5.8,2.4
								c1.5,1,3,2.2,4.3,3.5c2.2,2.3,4.2,4.9,5.7,7.8c1.5,2.6,2.7,5.3,3.7,8.1c1,2.7,1.9,5.5,2.6,8.3c0.7,2.8,1.2,5.6,1.6,8.4
								C51.5,41.7,51.7,44.5,51.7,47.4z M51.7,47.4c-1.5-2.4-2.9-4.8-4.4-7.2s-2.9-4.7-4.3-7c-0.7-1.1-1.4-2.3-2.2-3.4
								s-1.5-2.2-2.2-3.3c-1.5-2.1-3.1-4.2-4.7-6.1c-1.5-1.8-3.1-3.4-4.9-4.8c-0.7-0.6-1.5-1-2.4-1.4c-0.6-0.3-1.2-0.5-1.9-0.5
								c-0.5,0-1,0-1.4,0.2c-0.6,0.2-1.2,0.5-1.7,0.8c-3.2,2.3-5.7,5.3-7.4,8.8c-0.2,0.6-0.4,1.2-0.5,1.8c-0.1,0.5,0,1,0.1,1.4
								c0.2,0.6,0.5,1.2,0.9,1.8c0.5,0.8,1.1,1.5,1.8,2.1c1.7,1.5,3.6,2.9,5.6,4c2.1,1.3,4.4,2.4,6.8,3.6c2.4,1.1,4.8,2.2,7.3,3.2
								C41.2,43.3,46.4,45.3,51.7,47.4z"/>
						</g>
						<g id="Group_6959" transform="translate(50.804)">
							<path id="Path_5834" class="st3" d="M0.9,51.8c-0.5-2.8-0.8-5.7-0.8-8.5C0,40.5,0,37.6,0.2,34.8c0.2-2.9,0.6-5.7,1.1-8.6
								c0.5-2.9,1.3-5.8,2.3-8.6c1-3.1,2.5-6,4.3-8.6c1-1.5,2.2-2.9,3.6-4.2c1.5-1.4,3.3-2.6,5.3-3.4C18.7,0.4,21,0,23.3,0
								c2.1,0,4.2,0.4,6.3,1.1c6.7,2.6,12.4,7.3,16.1,13.5c1.1,1.9,1.8,3.9,2.2,6c0.4,2.2,0.4,4.5-0.1,6.8c-0.5,2.1-1.3,4-2.4,5.8
								c-1,1.6-2.1,3-3.4,4.3c-2.3,2.2-4.9,4.2-7.7,5.8c-2.6,1.5-5.3,2.7-8.1,3.8c-2.7,1-5.5,1.9-8.3,2.6c-2.8,0.7-5.6,1.2-8.4,1.7
								C6.6,51.6,3.7,51.8,0.9,51.8z M0.9,51.8c2.4-1.5,4.8-3,7.2-4.4s4.7-2.9,7-4.3c1.1-0.7,2.3-1.4,3.4-2.2s2.2-1.5,3.3-2.2
								c2.1-1.5,4.2-3.1,6.1-4.7c1.8-1.5,3.4-3.1,4.8-4.9c0.6-0.7,1-1.5,1.4-2.4c0.3-0.6,0.5-1.2,0.5-1.9c0-0.5,0-1-0.2-1.4
								c-0.2-0.6-0.5-1.2-0.8-1.7c-2.3-3.1-5.3-5.7-8.8-7.4c-0.6-0.2-1.2-0.4-1.8-0.5c-0.5-0.1-1,0-1.4,0.1
								c-0.6,0.2-1.2,0.5-1.8,0.9c-0.8,0.5-1.4,1.1-2.1,1.8c-1.5,1.7-2.9,3.6-4,5.6c-1.3,2.1-2.4,4.4-3.5,6.8
								C9,31.3,8,33.8,6.9,36.3C4.9,41.3,3,46.5,0.9,51.8z"/>
						</g>
					</g>
				</g>
			</g>
		</g>
	</g>
	<g class="st4">
		<path class="st0" d="M640.8,174.4h21.6v6.6h-13.8v6.9h11.8v6.5h-11.8v7.9H663v6.6h-22.2V174.4z"/>
		<path class="st0" d="M669.9,174.4h8.5l5.6,15.4c0.7,2,1.3,4.2,2,6.4h0.2c0.7-2.1,1.3-4.3,2-6.4l5.5-15.4h8.5v34.6H695v-12.7
			c0-3.4,0.6-8.4,1-11.8h-0.2l-2.8,8.2l-4.9,13.2h-4.3l-4.9-13.2l-2.8-8.2h-0.2c0.4,3.3,1,8.4,1,11.8v12.7h-7V174.4z"/>
		<path class="st0" d="M710.3,174.4h11.9c7.6,0,13.7,2.8,13.7,11.1c0,8.1-6.2,11.7-13.5,11.7H718v11.7h-7.8V174.4z M721.9,191
			c4.3,0,6.4-1.9,6.4-5.5s-2.3-4.9-6.6-4.9H718V191H721.9z"/>
		<path class="st0" d="M747.8,180.9h-9.5v-6.6h26.8v6.6h-9.5v28h-7.8V180.9z"/>
		<path class="st0" d="M775.5,196.6l-10.4-22.3h8.4l3.1,7.9c1,2.6,1.9,5,2.8,7.6h0.2c1-2.6,2-5,2.9-7.6l3.1-7.9h8.2l-10.4,22.3v12.3
			h-7.8V196.6z"/>
	</g>
	<g class="st4">
		<path class="st0" d="M658.1,217h3.9l1.2,7.9c0.2,1.8,0.5,3.6,0.7,5.4h0.1c0.3-1.8,0.7-3.6,1-5.4l1.8-7.9h3.2l1.8,7.9
			c0.3,1.7,0.7,3.5,1,5.4h0.1c0.2-1.8,0.5-3.6,0.7-5.4l1.2-7.9h3.7l-3,17h-4.8l-1.7-7.7c-0.3-1.3-0.5-2.7-0.7-3.9h-0.1
			c-0.2,1.2-0.4,2.6-0.7,3.9l-1.6,7.7h-4.7L658.1,217z"/>
		<path class="st0" d="M680.8,217h3.8v17h-3.8V217z"/>
		<path class="st0" d="M687.6,231.8l2.2-2.6c1.2,1,2.8,1.8,4.2,1.8c1.6,0,2.4-0.6,2.4-1.6c0-1.1-1-1.4-2.4-2l-2.2-0.9
			c-1.7-0.7-3.4-2.2-3.4-4.6c0-2.8,2.5-5,6-5c2,0,4,0.8,5.5,2.2l-2,2.4c-1.1-0.9-2.2-1.4-3.5-1.4c-1.3,0-2.2,0.6-2.2,1.5
			c0,1,1.1,1.4,2.6,2l2.2,0.9c2.1,0.8,3.4,2.2,3.4,4.6c0,2.8-2.3,5.3-6.4,5.3C691.6,234.2,689.3,233.4,687.6,231.8z"/>
		<path class="st0" d="M703.1,217h3.8v6.5h5.9V217h3.8v17h-3.8v-7.1h-5.9v7.1h-3.8V217z"/>
		<path class="st0" d="M725.8,217h3.8v13.7h6.7v3.2h-10.5V217z"/>
		<path class="st0" d="M739.3,217h3.8v17h-3.8V217z"/>
		<path class="st0" d="M746,231.8l2.2-2.6c1.2,1,2.8,1.8,4.2,1.8c1.6,0,2.4-0.6,2.4-1.6c0-1.1-1-1.4-2.4-2l-2.2-0.9
			c-1.7-0.7-3.4-2.2-3.4-4.6c0-2.8,2.5-5,6-5c2,0,4,0.8,5.5,2.2l-2,2.4c-1.1-0.9-2.2-1.4-3.5-1.4c-1.3,0-2.2,0.6-2.2,1.5
			c0,1,1.1,1.4,2.6,2l2.2,0.9c2.1,0.8,3.4,2.2,3.4,4.6c0,2.8-2.3,5.3-6.4,5.3C750.1,234.2,747.8,233.4,746,231.8z"/>
		<path class="st0" d="M764.4,220.2h-4.7V217h13.2v3.2h-4.7v13.7h-3.8V220.2z"/>
	</g>
</g>
</svg>
