<svg xmlns="http://www.w3.org/2000/svg" width="37.576" height="37.576" viewBox="0 0 37.576 37.576">
    <defs>
        <style>
            .cls-1{fill:#fff;opacity:0}.cls-2{fill:#0e273b}
        </style>
    </defs>
    <g id="eye_3_" data-name="eye (3)">
        <path id="Rectangle_2182" d="M0 0h37.576v37.576H0z" class="cls-1" data-name="Rectangle 2182"/>
        <g id="Group_8040" data-name="Group 8040" transform="translate(7.048 10.578)">
            <path id="Path_6442" d="M22.108 9.482C20.6 7.532 16.533 3 11.273 3 5.95 3 1.915 7.536.43 9.482a2.069 2.069 0 0 0 .008 2.531C1.945 13.965 6.016 18.5 11.273 18.5S20.6 13.968 22.1 12.022a2.068 2.068 0 0 0 .008-2.54zM9.511 6.523A1.761 1.761 0 1 1 7.75 8.284a1.761 1.761 0 0 1 1.761-1.761zM21 11.158c-1.381 1.784-5.088 5.933-9.723 5.933s-8.346-4.157-9.727-5.939a.659.659 0 0 1 0-.809A18.86 18.86 0 0 1 5.728 6.3a6.266 6.266 0 0 0-.8 3.039 6.341 6.341 0 0 0 12.682 0 6.259 6.259 0 0 0-.775-3 19.375 19.375 0 0 1 4.157 4 .663.663 0 0 1 .008.819z" class="cls-2" data-name="Path 6442" transform="translate(-.002 -3)"/>
        </g>
    </g>
</svg>
