<svg xmlns="http://www.w3.org/2000/svg" width="27" height="18" viewBox="0 0 27 18">
  <g id="Back" transform="translate(0)">
    <path id="Path_6494" data-name="Path 6494" d="M15.365,4.472A11.111,11.111,0,0,0,6.681,8.607l4.742-.633.329,2.451-7.371.985a1.264,1.264,0,0,1-.165.011,1.239,1.239,0,0,1-1.229-1.072L2,3l2.457-.328.549,4.089A13.642,13.642,0,0,1,29,15.6H26.521A11.153,11.153,0,0,0,15.365,4.472Z" transform="translate(-2 -2)" fill="#fff"/>
    <ellipse id="Ellipse_488" data-name="Ellipse 488" cx="4.402" cy="4.402" rx="4.402" ry="4.402" transform="translate(10.203 9.195)" fill="#fff"/>
  </g>
</svg>
