<svg xmlns="http://www.w3.org/2000/svg" width="22" height="22" viewBox="0 0 22 22">
    <defs>
        <style>
            .cls-1,.cls-2{fill:#0e273b}.cls-1{opacity:0}
        </style>
    </defs>
    <g id="like">
        <path id="Rectangle_2204" d="M0 0h22v22H0z" class="cls-1" data-name="Rectangle 2204"/>
        <g id="Group_8121" data-name="Group 8121" transform="translate(4.125 4.174)">
            <rect id="Rectangle_2205" width="2.887" height="7.837" class="cls-2" data-name="Rectangle 2205" rx=".6" transform="translate(0 4.901)"/>
            <path id="Path_6452" d="M14.662 5.357a1.63 1.63 0 0 0-1.374-.8h-3.35V2.5A2.479 2.479 0 0 0 8.027.087.816.816 0 0 0 7.05.9v2.682L5.4 5.509v7.3h7.015a1.863 1.863 0 0 0 1.851-1.6l.619-4.95a1.438 1.438 0 0 0-.223-.902z" class="cls-2" data-name="Path 6452" transform="translate(-1.688 -.071)"/>
        </g>
    </g>
</svg>
