<svg xmlns="http://www.w3.org/2000/svg" width="24.002" height="23.001" viewBox="0 0 24.002 23.001">
  <g id="like" transform="translate(0 0.001)">
    <path id="Path_3" data-name="Path 3" d="M3,9H1a1,1,0,0,0-1,1V22a1,1,0,0,0,1,1H4V10A1,1,0,0,0,3,9Z" fill="#fff"/>
    <path id="Path_4" data-name="Path 4" d="M21.882,8.133A2.986,2.986,0,0,0,21,8H15V5c0-3.824-2.589-4.942-3.958-5a1.017,1.017,0,0,0-.734.277A1,1,0,0,0,10,1V5.638l-4,4.8V23H18.23a2.985,2.985,0,0,0,2.87-2.118l2.769-9a3,3,0,0,0-1.987-3.749Z" fill="#fff"/>
  </g>
</svg>
