<svg id="Group_7333" data-name="Group 7333" xmlns="http://www.w3.org/2000/svg" width="294.831" height="164.16" viewBox="0 0 294.831 164.16">
  <g id="Group_7275" data-name="Group 7275" transform="translate(231.453 70.055)">
    <g id="Group_7260" data-name="Group 7260" transform="translate(6.452)">
      <path id="Path_6003" data-name="Path 6003" d="M391.8,258.441a79.794,79.794,0,0,0,20.246-4.984c.312-.128.5,1.989.5,1.989s1.45-2.831,1.954-3.068c5.332-2.514,10.221-6.018,12.842-10.869,0,0,1.291,29.745-36.946,36.352Z" transform="translate(-390.396 -241.508)" fill="#5084da"/>
    </g>
    <g id="Group_7261" data-name="Group 7261" transform="translate(2.668 50.865)">
      <path id="Path_6004" data-name="Path 6004" d="M402.214,323.284s12.619,6.689,37.3,7.852c0,0-16.788,15.32-55.2,10.046l1.26-17.448Z" transform="translate(-384.312 -323.284)" fill="#5084da"/>
    </g>
    <g id="Group_7262" data-name="Group 7262" transform="translate(2.916 22.613)">
      <path id="Path_6005" data-name="Path 6005" d="M384.711,289.132a75.346,75.346,0,0,1,14.944-6.781c.368-.125,1.148,2.054,1.148,2.054s1.263-2.839,1.931-3.038c11.046-3.308,26.161-5.467,42.44-.873,0,0-4.932,6.871-15.026,14.392-.43.32-3.282.067-3.282.067s1.2,1.442.8,1.716a96.673,96.673,0,0,1-40.955,16.156Z" transform="translate(-384.711 -277.863)" fill="#5193f4"/>
    </g>
    <g id="Group_7268" data-name="Group 7268" transform="translate(0 25.245)" opacity="0.4">
      <g id="Group_7263" data-name="Group 7263">
        <path id="Path_6006" data-name="Path 6006" d="M443.4,282.094a141.773,141.773,0,0,1-14.859,8.232c-5.094,2.489-10.332,4.676-15.635,6.68-2.647,1.017-5.355,1.865-8.039,2.776L400.794,301c-.68.2-1.356.414-2.04.6l-2.063.517a138.882,138.882,0,0,1-16.668,3.278l4.157-.857,2.078-.419c.69-.153,1.374-.335,2.061-.5l4.123-.983,4.083-1.13c2.729-.727,5.41-1.622,8.112-2.44,2.666-.931,5.353-1.8,7.982-2.834,5.306-1.932,10.518-4.122,15.653-6.479q3.855-1.762,7.639-3.677Q439.7,284.183,443.4,282.094Z" transform="translate(-380.023 -282.094)" fill="#5084da"/>
      </g>
      <g id="Group_7264" data-name="Group 7264" transform="translate(28.858 3.17)">
        <path id="Path_6007" data-name="Path 6007" d="M426.419,299.968c1.054-.985,2.075-1.987,3.1-2.984s2.008-2.021,2.968-3.07,1.876-2.13,2.77-3.235c.873-1.121,1.7-2.278,2.486-3.49a18.765,18.765,0,0,1-1.964,3.866,28.65,28.65,0,0,1-2.685,3.415A30.41,30.41,0,0,1,426.419,299.968Z" transform="translate(-426.419 -287.19)" fill="#5084da"/>
      </g>
      <g id="Group_7265" data-name="Group 7265" transform="translate(13.576 8.304)">
        <path id="Path_6008" data-name="Path 6008" d="M401.849,307.674a27.359,27.359,0,0,0,3.186-2.481,25.057,25.057,0,0,0,2.76-2.883,23.644,23.644,0,0,0,2.29-3.263,34.922,34.922,0,0,0,1.831-3.6,15.207,15.207,0,0,1-1.264,3.9,16.338,16.338,0,0,1-2.223,3.485,16.989,16.989,0,0,1-2.989,2.853A13.657,13.657,0,0,1,401.849,307.674Z" transform="translate(-401.849 -295.444)" fill="#5084da"/>
      </g>
      <g id="Group_7266" data-name="Group 7266" transform="translate(28.858 15.091)">
        <path id="Path_6009" data-name="Path 6009" d="M426.419,307.213a52.963,52.963,0,0,0,5.849-.03c.965-.05,1.924-.164,2.883-.3s1.908-.347,2.895-.524a11.036,11.036,0,0,1-2.762,1.153,14.278,14.278,0,0,1-2.963.5,15.884,15.884,0,0,1-3-.086A11.676,11.676,0,0,1,426.419,307.213Z" transform="translate(-426.419 -306.356)" fill="#5084da"/>
      </g>
      <g id="Group_7267" data-name="Group 7267" transform="translate(13.886 20.556)">
        <path id="Path_6010" data-name="Path 6010" d="M402.347,315.142c1.188.142,2.366.256,3.537.378s2.342.205,3.512.256,2.337.052,3.508.021a35.082,35.082,0,0,0,3.521-.351,13.005,13.005,0,0,1-3.46.991,20.684,20.684,0,0,1-3.605.162A22.083,22.083,0,0,1,402.347,315.142Z" transform="translate(-402.347 -315.142)" fill="#5084da"/>
      </g>
    </g>
    <g id="Group_7270" data-name="Group 7270" transform="translate(10.677 7.73)" opacity="0.228">
      <g id="Group_7269" data-name="Group 7269">
        <path id="Path_6011" data-name="Path 6011" d="M425.981,253.935a22.121,22.121,0,0,1-4.849,7.414,32.168,32.168,0,0,1-7.031,5.494l-1.972,1.055c-.655.358-1.357.616-2.035.922a36.713,36.713,0,0,1-4.194,1.519c-.7.253-1.433.387-2.152.569l-2.163.514c-1.465.23-2.931.444-4.4.628,1.436-.368,2.879-.66,4.3-1.021l2.116-.622a21.961,21.961,0,0,0,2.1-.669c1.364-.538,2.767-.97,4.075-1.631.658-.317,1.349-.567,1.985-.926l1.923-1.049a37.345,37.345,0,0,0,7-5.225,21.555,21.555,0,0,0,1.526-1.572c.241-.275.493-.541.726-.824l.678-.863A21.319,21.319,0,0,0,425.981,253.935Z" transform="translate(-397.189 -253.935)" fill="#605aca" opacity="0.5"/>
      </g>
    </g>
    <g id="Group_7274" data-name="Group 7274" transform="translate(8.488 56.162)">
      <g id="Group_7271" data-name="Group 7271">
        <path id="Path_6012" data-name="Path 6012" d="M434.987,336.455c-1.729.332-3.479.537-5.228.743q-2.629.255-5.271.386a90.129,90.129,0,0,1-10.577-.15c-1.759-.149-3.515-.351-5.26-.631a47.859,47.859,0,0,1-5.2-1.043,36,36,0,0,1-9.785-3.96,38.514,38.514,0,0,0,4.876,1.962,47.311,47.311,0,0,0,5.056,1.382,73.826,73.826,0,0,0,10.374,1.47c3.485.308,6.99.376,10.494.34S431.482,336.755,434.987,336.455Z" transform="translate(-393.67 -331.8)" fill="#4ca1ff"/>
      </g>
      <g id="Group_7272" data-name="Group 7272" transform="translate(13.46 4.391)">
        <path id="Path_6013" data-name="Path 6013" d="M426.627,345.289a13.214,13.214,0,0,1-6.754-1.335,10.413,10.413,0,0,1-2.823-2.092,7.887,7.887,0,0,1-1.739-3A12.946,12.946,0,0,0,417.5,341.4a13.98,13.98,0,0,0,2.746,1.818,21.426,21.426,0,0,0,3.094,1.23A32.884,32.884,0,0,0,426.627,345.289Z" transform="translate(-415.31 -338.859)" fill="#4ca1ff"/>
      </g>
      <g id="Group_7273" data-name="Group 7273" transform="translate(5.921 2.64)">
        <path id="Path_6014" data-name="Path 6014" d="M412.846,344.771a13.215,13.215,0,0,1-6.305-2.766,10.413,10.413,0,0,1-2.3-2.653,7.888,7.888,0,0,1-1.047-3.308A12.983,12.983,0,0,0,404.774,339a14,14,0,0,0,2.287,2.369,21.372,21.372,0,0,0,2.755,1.871A32.645,32.645,0,0,0,412.846,344.771Z" transform="translate(-403.19 -336.044)" fill="#4ca1ff"/>
      </g>
    </g>
  </g>
  <g id="Group_7276" data-name="Group 7276" transform="translate(110.76 128.857)">
    <path id="Path_6015" data-name="Path 6015" d="M229.9,369.918a20.522,20.522,0,0,0-15.541-6.969c-4.327.057-8.574,1.495-12.891,1.23a16.48,16.48,0,0,1-15.316-18.824c.5-3.42,2.289-6.854,5.387-8.385a10.4,10.4,0,0,1,5.514-.871A15.515,15.515,0,0,1,202,337.423a25.576,25.576,0,0,1,9.186,7.484c2.26,2.813,7.423,6.951,10.913,9.622,2.046,1.559,3.522,2.615,3.522,2.615C228.083,359.42,228.211,367.019,229.9,369.918Z" transform="translate(-185.983 -336.044)" fill="#52d2bc"/>
    <path id="Path_6016" data-name="Path 6016" d="M195.637,352.979c10.873,3.1,22.882,7.486,31.371,14.952" transform="translate(-189.632 -342.445)" fill="none" stroke="#00ad9f" stroke-linecap="round" stroke-linejoin="round" stroke-width="1"/>
  </g>
  <g id="Group_7277" data-name="Group 7277" transform="translate(159.691 129.613)">
    <path id="Path_6017" data-name="Path 6017" d="M291.793,345.506a13.757,13.757,0,0,1-1.408,5.294,11.92,11.92,0,0,1-2.354,3,18.1,18.1,0,0,1-1.508,1.278,21.987,21.987,0,0,1-6.6,3.462c-3.4,1.082-7.04,1.283-10.165,3.2a12.365,12.365,0,0,0-5.1,6.382l-.013-3.045a37.345,37.345,0,0,1,1.931-10.028,28.6,28.6,0,0,1,3.263-5.88,40.751,40.751,0,0,1,7.114-8,15.527,15.527,0,0,1,7.392-3.823c2.68-.4,5.531.59,6.76,2.952A9.551,9.551,0,0,1,291.793,345.506Z" transform="translate(-264.65 -337.259)" fill="#5193f4"/>
    <path id="Path_6018" data-name="Path 6018" stroke="#0b43a4" d="M267.684,364.078a25.263,25.263,0,0,1,9.242-11.156c2.51-1.648,5.262-2.774,7.824-4.319a14.78,14.78,0,0,0,6.232-6.459" fill="none" transform="translate(-265.797 -339.106)" stroke-linecap="round" stroke-linejoin="round" stroke-width="1" opacity="0.31"/>
  </g>
  <g id="Group_7278" data-name="Group 7278" transform="translate(153.169 148.981)">
    <path id="Path_6019" data-name="Path 6019" d="M258.39,376.774c4.783-4.745,11.567-6.919,18.236-7.876,5.562-.8,11.4-.827,16.607,1.3a8.819,8.819,0,0,1,4.2,3.063,4.147,4.147,0,0,1-.077,4.908,5.635,5.635,0,0,1-4.09,1.426c-4.886.176-9.665-1.245-14.449-2.247-8.224-1.724-17.178-2.14-24.654,1.7" transform="translate(-254.164 -368.397)" fill="#52d2bc"/>
    <path id="Path_6020" data-name="Path 6020" d="M270.545,376.315c9.9-4.174,24.2-2.829,30.432,1.485" transform="translate(-260.356 -370.435)" fill="none" stroke="#00ad9f" stroke-linecap="round" stroke-linejoin="round" stroke-width="1"/>
  </g>
  <g id="Group_7279" data-name="Group 7279" transform="translate(0 93.193)">
    <path id="Path_6021" data-name="Path 6021" d="M54.19,291.823c-4.473-2.149-6.616-7.876-10.292-9.107-4.554-1.574-5.831,3.514-13.2,2.255-6.18-1.056-8.059-8.006-18.39-5.856-3.155.656-5.249,3.323-4.064,6.522.886,3.183,5.27,5.2,7.878,6.823,2.313,1.306,4.361,2.007,5.732,4.435.014.026.029.053.041.079.922,1.974.554,3.734,2.708,5.179,5.046,3.692,11.331-2.17,17.071-2,4.049.121,3.935,4.325,8.8,5.542,4.821,1.205,3.239-3.11,13.353.809a.706.706,0,0,0,.913-.4h0a.706.706,0,0,0-.149-.74C57.522,297.954,60.774,294.987,54.19,291.823Z" transform="translate(-7.913 -278.706)" fill="#4a84d8"/>
    <path id="Path_6022" data-name="Path 6022" d="M54.19,291.823c-4.473-2.149-6.616-7.876-10.292-9.107-4.554-1.574-5.831,3.514-13.2,2.255-6.18-1.056-8.059-8.006-18.39-5.856-3.155.656-5.249,3.323-4.064,6.522.886,3.183,5.27,5.2,7.878,6.823,2.313,1.306,4.361,2.007,5.732,4.435.014.026.029.053.041.079.922,1.974.554,3.734,2.708,5.179,5.046,3.692,11.331-2.17,17.071-2,4.049.121,3.935,4.325,8.8,5.542,4.821,1.205,3.239-3.11,13.353.809a.706.706,0,0,0,.913-.4h0a.706.706,0,0,0-.149-.74C57.522,297.954,60.774,294.987,54.19,291.823Z" transform="translate(-7.913 -278.706)" fill="#00ad9f"/>
    <path id="Path_6023" data-name="Path 6023" d="M63.323,304.569c-2.359-1.144-4.11-3.211-6.018-5.008s-4.259-3.442-6.88-3.371c-1.608.044-3.215.737-4.783.38-2.069-.47-3.481-2.645-5.584-2.926a18.027,18.027,0,0,0-3.522.4c-3.379.223-6.021-2.656-8.788-4.608a18.217,18.217,0,0,0-10.728-3.3" transform="translate(-11.355 -281.513)" fill="none" stroke="#4ca1ff" stroke-miterlimit="10" stroke-width="1" opacity="0.5"/>
  </g>
  <g id="Group_7280" data-name="Group 7280" transform="translate(21.937 131.654)">
    <path id="Path_6024" data-name="Path 6024" d="M111.065,345.271c-14.715,1.556-17.07,2.826-20.6,1.3-4.5-1.944-9.221-1.461-13.753-3.319s-9.454-3.277-14.289-2.492c-1.528.248-3.224.869-3.438,2.662a2.941,2.941,0,0,0,.568,2.035c1.065,1.485,2.805,1.984,4.469,2.443l5.563,1.534a1.759,1.759,0,0,1-.164,3.431l-.047.006a13.425,13.425,0,0,1-4.672-.437c-3.341-.74-6.688-1.64-10.109-1.644-4.141-.006-8.53,1.489-10.578,5.35a7.1,7.1,0,0,0-.74,4.487c.722,4.27,4.715,5.7,8.255,5.376a29.263,29.263,0,0,0,7.2-2.038c5.744-2.078,10.659.214,16.765.373C92.347,364.778,111.065,345.271,111.065,345.271Z" transform="translate(-43.182 -340.541)" fill="#7ee8d4"/>
    <path id="Path_6025" data-name="Path 6025" d="M50.689,361.939c10.478-1.2,21.032-2.409,31.085-5.6,2.949-.934,6.747-1.193,15.07-7.335" transform="translate(-46.019 -343.741)" fill="none" stroke="#00ad9f" stroke-linecap="round" stroke-linejoin="round" stroke-width="1"/>
  </g>
  <g id="Group_7281" data-name="Group 7281" transform="translate(23.627 40.005)">
    <path id="Path_6026" data-name="Path 6026" d="M65.851,242.278a5.907,5.907,0,0,0,1.1.679c1.8.886,3.858,1.01,5.288,2.623a19.243,19.243,0,0,1,2.186,3.586,6.5,6.5,0,0,0,.49.766,7.093,7.093,0,0,0,6.717,3.333c.955-.022,1.944-.114,2.96-.113a9.846,9.846,0,0,1,4.993,1.179,13.612,13.612,0,0,1,3.545,2.884.741.741,0,0,0,.94.062.8.8,0,0,0,.366-.815,11.232,11.232,0,0,0-3.307-6.019c-4.122-3.9-10.206-4.21-10.575-12.262-.078-1.725.289-2.948.013-4.177a4.335,4.335,0,0,0-1.054-1.931c-1.246-1.344-3.038-1.938-4.635-3.011-4.323-3.083-2.263-8.129-2.647-12.93-.257-3.919-3.781-6.47-6.662-8.689-3.6-2.651-3.594-7.432-6.025-10.986s-8.466-4.989-11.679-.21c-3.412,4.77-1.538,10.734-.557,15.572a11.239,11.239,0,0,0,1.292,3.41c1.8,3.141,4.885,5.377,7.551,8.038a19.1,19.1,0,0,1,3.97,5.573,16.42,16.42,0,0,1,1.232,3.9c.058.323.12.642.183.961C62.154,237.061,62.888,240.049,65.851,242.278Z" transform="translate(-45.9 -193.196)" fill="#7ee8d4"/>
    <path id="Path_6027" data-name="Path 6027" d="M53.639,198.281c.142,3.71.345,7.61,2.437,10.521,2.249,3.13,6.478,4.8,7.778,8.46.464,1.306.536,2.831,1.446,3.862a12.031,12.031,0,0,0,2.346,1.623c3.623,2.506,3.49,8.082,6.715,11.029a14.722,14.722,0,0,1,1.757,1.59c1.133,1.438.979,3.521,1.288,5.366a12.891,12.891,0,0,0,4.938,7.73,40.558,40.558,0,0,0,8.265,4.707" transform="translate(-48.825 -195.118)" fill="none" stroke="#4ca1ff" stroke-miterlimit="10" stroke-width="1" opacity="0.5"/>
    <path id="Path_6028" data-name="Path 6028" d="M103.664,277.951a9.845,9.845,0,0,1,4.993,1.179,6.023,6.023,0,0,1,1.544-3.888c-4.122-3.9-10.206-4.21-10.575-12.262-.078-1.725.289-2.948.013-4.177-1.23,2.582-3.436,3.111-3.262,5.747.15,2.719,3.628,5.236,4.251,8.666C101.141,276.05,102.185,276.772,103.664,277.951Z" transform="translate(-64.976 -217.995)" fill="#5a4fd1" opacity="0.37"/>
  </g>
  <g id="Group_7282" data-name="Group 7282" transform="translate(93.092 139.648)">
    <path id="Path_6029" data-name="Path 6029" d="M166.685,354.285c-2.78-1.1-6.493-1.549-8.275.85-1.493,2.009-.72,4.857.311,7.136.87,1.926,1.975,3.883,3.811,4.929a10.89,10.89,0,0,0,4.156,1.1,99.72,99.72,0,0,0,12.048.7,25.241,25.241,0,0,1,14.177,4.8C187.96,364.591,176.041,357.979,166.685,354.285Z" transform="translate(-157.578 -353.394)" fill="#5084da"/>
    <path id="Path_6030" data-name="Path 6030" stroke="#0b43a4" d="M164.378,364.449a43.443,43.443,0,0,1,10.506,1.4c3.473,1.028,16.834,7.159,18.922,9.769" fill="none" transform="translate(-160.148 -357.573)" stroke-linecap="round" stroke-linejoin="round" stroke-width="1" opacity="0.31"/>
  </g>
  <g id="Group_7283" data-name="Group 7283" transform="translate(234.316 36.937)">
    <path id="Path_6031" data-name="Path 6031" d="M388.349,223.39a5.642,5.642,0,0,0-.115,1.228c.006,1.918.777,3.734,0,5.647a18.408,18.408,0,0,1-2.141,3.4,6.1,6.1,0,0,0-.448.745,6.786,6.786,0,0,0,0,7.174c.426.809.925,1.617,1.357,2.488a9.417,9.417,0,0,1,1.115,4.779,13.026,13.026,0,0,1-.962,4.264.71.71,0,0,0,.348.832.767.767,0,0,0,.853-.034,10.744,10.744,0,0,0,3.749-5.395c1.587-5.191-.737-10.535,6-14.279,1.445-.8,2.648-1.007,3.584-1.766a4.159,4.159,0,0,0,1.206-1.725c.62-1.64.367-3.428.606-5.252.8-5.016,6-5.4,9.951-7.77,3.248-1.888,3.934-5.992,4.608-9.406.738-4.214,4.837-6.242,6.847-9.837s.671-9.375-4.79-10.1c-5.539-.893-9.851,3.251-13.578,6.15a10.756,10.756,0,0,0-2.372,2.558c-1.925,2.877-2.528,6.474-3.672,9.89a18.262,18.262,0,0,1-3.085,5.772,15.689,15.689,0,0,1-2.82,2.718c-.252.187-.5.376-.746.565C391.245,218,389,219.9,388.349,223.39Z" transform="translate(-384.626 -188.264)" fill="#7ee8d4"/>
    <path id="Path_6032" data-name="Path 6032" d="M424.461,192.469c-3.118,1.7-6.372,3.534-7.976,6.565-1.724,3.259-1.353,7.592-3.937,10.264-.922.953-2.2,1.663-2.693,2.882a11.5,11.5,0,0,0-.392,2.7c-.6,4.171-5.438,6.43-6.591,10.447a14.036,14.036,0,0,1-.614,2.182c-.75,1.583-2.6,2.337-4.049,3.387a12.33,12.33,0,0,0-4.521,7.521,38.776,38.776,0,0,0-.515,9.084" transform="translate(-387.841 -189.853)" fill="none" stroke="#4ca1ff" stroke-miterlimit="10" stroke-width="1" opacity="0.5"/>
  </g>
  <g id="Group_7284" data-name="Group 7284" transform="translate(212.494 133.801)">
    <path id="Path_6033" data-name="Path 6033" d="M359.015,359.038c4.236,2.39,5.964,8.128,9.479,9.568,4.353,1.832,5.929-3.061,13.05-1.358,5.976,1.429,7.366,8.348,17.608,6.909,3.127-.439,5.347-2.913,4.394-6.117-.662-3.17-4.819-5.421-7.266-7.179-2.178-1.426-4.136-2.242-5.321-4.705-.012-.026-.024-.053-.035-.08-.775-1.99-.3-3.688-2.316-5.238-4.7-3.934-11.221,1.395-16.824.857-3.951-.379-3.57-4.483-8.252-5.986-4.638-1.489-3.368,2.833-13.007-1.65a.692.692,0,0,0-.919.337h0a.693.693,0,0,0,.1.733C356.15,352.828,352.78,355.52,359.015,359.038Z" transform="translate(-349.542 -343.993)" fill="#4a84d8"/>
    <path id="Path_6034" data-name="Path 6034" d="M359.015,359.038c4.236,2.39,5.964,8.128,9.479,9.568,4.353,1.832,5.929-3.061,13.05-1.358,5.976,1.429,7.366,8.348,17.608,6.909,3.127-.439,5.347-2.913,4.394-6.117-.662-3.17-4.819-5.421-7.266-7.179-2.178-1.426-4.136-2.242-5.321-4.705-.012-.026-.024-.053-.035-.08-.775-1.99-.3-3.688-2.316-5.238-4.7-3.934-11.221,1.395-16.824.857-3.951-.379-3.57-4.483-8.252-5.986-4.638-1.489-3.368,2.833-13.007-1.65a.692.692,0,0,0-.919.337h0a.693.693,0,0,0,.1.733C356.15,352.828,352.78,355.52,359.015,359.038Z" transform="translate(-349.542 -343.993)" fill="#00ad9f"/>
    <path id="Path_6035" data-name="Path 6035" d="M356.851,351.966c2.234,1.27,3.812,3.4,5.564,5.284s3.944,3.639,6.512,3.738c1.576.061,3.191-.514,4.7-.064,1.993.593,3.234,2.81,5.272,3.22a17.674,17.674,0,0,0,3.47-.161c3.319,0,5.717,2.984,8.3,5.071a17.848,17.848,0,0,0,10.28,3.916" transform="translate(-352.305 -347.007)" fill="none" stroke="#4ca1ff" stroke-miterlimit="10" stroke-width="1" opacity="0.5"/>
  </g>
  <g id="Group_7298" data-name="Group 7298" transform="translate(13.77 77.826)">
    <g id="Group_7285" data-name="Group 7285" transform="translate(0 32.947)">
      <path id="Path_6036" data-name="Path 6036" d="M86.908,333.44s-18.47-4.04-32.675-2.52c-.449.048.1-2.752.1-2.752s-2.927,3.107-3.665,3.225c-7.812,1.248-15.423,3.938-20.614,9.211,0,0,9.449-38.821,61.2-33.049Z" transform="translate(-30.052 -306.97)" fill="#5084da"/>
    </g>
    <g id="Group_7286" data-name="Group 7286" transform="translate(13.412)">
      <path id="Path_6037" data-name="Path 6037" d="M105.8,315.5A101.055,101.055,0,0,1,87.19,303.72c-.412-.322,1.46-2.8,1.46-2.8s-4.115.671-4.83.07C71.98,291.026,58.435,275.651,51.614,254c0,0,11.339.48,27.208,6.274.676.248,2.49,3.633,2.49,3.633s.738-2.4,1.334-2.165a129.711,129.711,0,0,1,48.266,34.075Z" transform="translate(-51.614 -254.001)" fill="#5193f4"/>
    </g>
    <g id="Group_7293" data-name="Group 7293" transform="translate(13.412 0.527)" opacity="0.4">
      <g id="Group_7287" data-name="Group 7287">
        <path id="Path_6038" data-name="Path 6038" d="M51.614,254.849a190.386,190.386,0,0,1,20.172,10.619c6.54,3.886,12.849,8.154,19,12.631,3.089,2.224,6.033,4.637,9.031,6.98l4.367,3.674c.724.616,1.462,1.217,2.175,1.847l2.1,1.934A186.373,186.373,0,0,1,124.4,308.829l-4.021-4.036-2-2.023c-.679-.662-1.386-1.3-2.077-1.945l-4.136-3.9-4.273-3.752c-2.823-2.528-5.8-4.878-8.707-7.308-3.006-2.308-5.96-4.682-9.053-6.874-6.073-4.534-12.365-8.771-18.789-12.8q-4.812-3.03-9.746-5.867Q56.678,257.46,51.614,254.849Z" transform="translate(-51.614 -254.849)" fill="#5084da"/>
      </g>
      <g id="Group_7288" data-name="Group 7288" transform="translate(20.629 23.066)">
        <path id="Path_6039" data-name="Path 6039" d="M107.447,295.873c-1.88-.458-3.757-.866-5.626-1.279-1.873-.393-3.746-.767-5.629-1.071-1.88-.324-3.771-.539-5.668-.728-1.9-.154-3.805-.228-5.745-.221a25.16,25.16,0,0,1,5.783-.639,38.317,38.317,0,0,1,5.809.5A40.814,40.814,0,0,1,107.447,295.873Z" transform="translate(-84.779 -291.933)" fill="#5084da"/>
      </g>
      <g id="Group_7289" data-name="Group 7289" transform="translate(9.253 13.582)">
        <path id="Path_6040" data-name="Path 6040" d="M82.362,277.665c-1.339-.08-2.67-.128-4-.178s-2.65-.061-3.972-.037-2.639.1-3.957.2c-1.316.129-2.624.314-3.947.558a17.452,17.452,0,0,1,3.867-1.15,26.561,26.561,0,0,1,4.025-.376A28.3,28.3,0,0,1,82.362,277.665Z" transform="translate(-66.49 -276.684)" fill="#5084da"/>
      </g>
      <g id="Group_7290" data-name="Group 7290" transform="translate(38.555 36.819)">
        <path id="Path_6041" data-name="Path 6041" d="M134.733,318.008a36.538,36.538,0,0,0-5.129-1.749,33.584,33.584,0,0,0-5.266-.977,31.766,31.766,0,0,0-5.347-.169,46.956,46.956,0,0,0-5.391.6,20.367,20.367,0,0,1,5.313-1.454,21.9,21.9,0,0,1,5.547-.07,22.8,22.8,0,0,1,5.4,1.255A18.32,18.32,0,0,1,134.733,318.008Z" transform="translate(-113.6 -314.043)" fill="#5084da"/>
      </g>
      <g id="Group_7291" data-name="Group 7291" transform="translate(33.78 14.589)">
        <path id="Path_6042" data-name="Path 6042" d="M115.44,290.721a71.048,71.048,0,0,0-4.337-6.542c-.766-1.046-1.6-2.039-2.462-3.012-.85-.991-1.793-1.887-2.718-2.862a14.771,14.771,0,0,1,3.325,2.25,19.224,19.224,0,0,1,2.737,2.96,21.372,21.372,0,0,1,2.109,3.428A15.642,15.642,0,0,1,115.44,290.721Z" transform="translate(-105.923 -278.304)" fill="#5084da"/>
      </g>
      <g id="Group_7292" data-name="Group 7292" transform="translate(49.467 24.398)">
        <path id="Path_6043" data-name="Path 6043" d="M141.161,310.1c-.715-1.437-1.454-2.843-2.179-4.247-.743-1.4-1.493-2.78-2.3-4.131s-1.662-2.661-2.558-3.952a47.037,47.037,0,0,0-2.984-3.692,17.444,17.444,0,0,1,3.658,3.154,27.768,27.768,0,0,1,2.834,3.927A29.621,29.621,0,0,1,141.161,310.1Z" transform="translate(-131.142 -294.074)" fill="#5084da"/>
      </g>
    </g>
    <g id="Group_7295" data-name="Group 7295" transform="translate(7.95 44.427)" opacity="0.5">
      <g id="Group_7294" data-name="Group 7294">
        <path id="Path_6044" data-name="Path 6044" d="M42.834,339.087a29.7,29.7,0,0,1,9.021-7.744,43.191,43.191,0,0,1,11.115-4.454l2.937-.622c.977-.217,1.979-.287,2.968-.429a49.318,49.318,0,0,1,5.972-.391c1-.064,1.992.037,2.987.072l2.98.146c1.974.251,3.943.522,5.9.832-1.988-.061-3.958-.225-5.93-.292l-2.959.011c-.985.017-1.971-.034-2.951.08-1.959.184-3.929.216-5.862.578-.967.162-1.951.228-2.905.452l-2.87.633a50.147,50.147,0,0,0-10.969,4.121,29.158,29.158,0,0,0-2.554,1.457c-.414.264-.838.514-1.243.791l-1.2.86A28.634,28.634,0,0,0,42.834,339.087Z" transform="translate(-42.834 -325.427)" fill="#4ca1ff"/>
      </g>
    </g>
    <g id="Group_7297" data-name="Group 7297" transform="translate(34.764 44.942)" opacity="0.5">
      <g id="Group_7296" data-name="Group 7296">
        <path id="Path_6045" data-name="Path 6045" d="M91.074,326.255c-1.076,1.716-2.125,3.339-3,5.055a20.308,20.308,0,0,0-1.95,5.466,8.9,8.9,0,0,1,.967-5.969,13.579,13.579,0,0,1,1.713-2.532A10.233,10.233,0,0,1,91.074,326.255Z" transform="translate(-85.943 -326.255)" fill="#4ca1ff"/>
      </g>
    </g>
  </g>
  <g id="Group_7306" data-name="Group 7306" transform="translate(51.079 5.851)">
    <rect id="Rectangle_1437" data-name="Rectangle 1437" width="30.589" height="21.037" transform="translate(84.146 129.384)" fill="#0056ec"/>
    <rect id="Rectangle_1438" data-name="Rectangle 1438" width="30.589" height="7.625" transform="translate(84.146 129.384)" fill="#605aca" opacity="0.5"/>
    <path id="Path_6046" data-name="Path 6046" d="M259.926,379.587H197.837a3.55,3.55,0,1,0,0,7.1h62.089a3.55,3.55,0,0,0,3.55-3.55h0A3.551,3.551,0,0,0,259.926,379.587Z" transform="translate(-129.441 -229.497)" fill="#0056ec"/>
    <path id="Path_6047" data-name="Path 6047" d="M263.477,384.776a3.551,3.551,0,0,1-3.552,3.547H197.837a3.551,3.551,0,0,1-3.552-3.547,3.15,3.15,0,0,1,.113-.861,3.539,3.539,0,0,0,3.44,2.691h62.088a3.538,3.538,0,0,0,3.439-2.691A3.127,3.127,0,0,1,263.477,384.776Z" transform="translate(-129.441 -231.133)" fill="#605aca" opacity="0.5"/>
    <g id="Group_7302" data-name="Group 7302">
      <g id="Group_7300" data-name="Group 7300">
        <g id="Group_7299" data-name="Group 7299">
          <rect id="Rectangle_1439" data-name="Rectangle 1439" width="195.771" height="130.763" rx="3.5" transform="translate(1.555 1.555)" fill="#fff"/>
          <path id="Path_6048" data-name="Path 6048" d="M285.183,141.4a.623.623,0,0,1,.622.622V268.427a.623.623,0,0,1-.622.622H93.766a.623.623,0,0,1-.622-.622V142.018a.623.623,0,0,1,.622-.622H285.183m0-3.11H93.766a3.732,3.732,0,0,0-3.732,3.732V268.427a3.732,3.732,0,0,0,3.732,3.732H285.183a3.732,3.732,0,0,0,3.732-3.732V142.018a3.732,3.732,0,0,0-3.732-3.732Z" transform="translate(-90.034 -138.286)" fill="#0056ec"/>
        </g>
      </g>
      <g id="Group_7301" data-name="Group 7301" transform="translate(0 117.526)">
        <path id="Path_6049" data-name="Path 6049" d="M288.914,339.591V327.233H90.034v12.358a4.21,4.21,0,0,0,4.211,4.211H284.7A4.21,4.21,0,0,0,288.914,339.591Z" transform="translate(-90.034 -327.233)" fill="#0056ec"/>
      </g>
    </g>
    <path id="Path_6051" data-name="Path 6051" d="M260.608,229.47H187.251a6.066,6.066,0,0,1-6.066-6.066h0a6.066,6.066,0,0,1,6.066-6.066h73.357a6.066,6.066,0,0,1,6.066,6.066h0A6.066,6.066,0,0,1,260.608,229.47Z" transform="translate(-124.489 -168.167)" fill="#c8eefb"/>
    <path id="Path_6052" data-name="Path 6052" d="M262.332,227.711H194.068a1.584,1.584,0,0,1-1.584-1.584h0a1.584,1.584,0,0,1,1.584-1.584h68.265a1.584,1.584,0,0,1,1.584,1.584h0A1.584,1.584,0,0,1,262.332,227.711Z" transform="translate(-128.76 -170.891)" fill="#5084da"/>
    <path id="Path_6053" data-name="Path 6053" d="M260.7,264.548H187.345a6.066,6.066,0,0,1-6.066-6.066h0a6.066,6.066,0,0,1,6.066-6.066H260.7a6.066,6.066,0,0,1,6.066,6.066h0A6.066,6.066,0,0,1,260.7,264.548Z" transform="translate(-124.524 -181.427)" fill="#c8eefb"/>
    <path id="Path_6054" data-name="Path 6054" d="M193.086,262.961h0a1.585,1.585,0,0,1-1.584-1.584h0a1.584,1.584,0,0,1,1.584-1.584h0a1.584,1.584,0,0,1,1.584,1.584h0A1.584,1.584,0,0,1,193.086,262.961Zm6.295-1.584h0a1.584,1.584,0,0,0-1.584-1.584h0a1.584,1.584,0,0,0-1.584,1.584h0a1.584,1.584,0,0,0,1.584,1.584h0A1.585,1.585,0,0,0,199.381,261.377Zm4.71,0h0a1.584,1.584,0,0,0-1.584-1.584h0a1.584,1.584,0,0,0-1.584,1.584h0a1.584,1.584,0,0,0,1.584,1.584h0A1.584,1.584,0,0,0,204.091,261.377Zm4.71,0h0a1.584,1.584,0,0,0-1.584-1.584h0a1.584,1.584,0,0,0-1.584,1.584h0a1.584,1.584,0,0,0,1.584,1.584h0A1.584,1.584,0,0,0,208.8,261.377Zm4.71,0h0a1.584,1.584,0,0,0-1.584-1.584h0a1.584,1.584,0,0,0-1.584,1.584h0a1.584,1.584,0,0,0,1.584,1.584h0A1.584,1.584,0,0,0,213.512,261.377Zm4.71,0h0a1.584,1.584,0,0,0-1.584-1.584h0a1.584,1.584,0,0,0-1.584,1.584h0a1.584,1.584,0,0,0,1.584,1.584h0A1.584,1.584,0,0,0,218.221,261.377Zm4.71,0h0a1.584,1.584,0,0,0-1.584-1.584h0a1.584,1.584,0,0,0-1.584,1.584h0a1.584,1.584,0,0,0,1.584,1.584h0A1.584,1.584,0,0,0,222.932,261.377Z" transform="translate(-128.389 -184.215)" fill="#5084da"/>
    <path id="Path_6055" data-name="Path 6055" d="M250.306,301.295H229.47a6.066,6.066,0,0,1-6.066-6.066h0a6.066,6.066,0,0,1,6.066-6.066h20.836a6.066,6.066,0,0,1,6.066,6.066h0A6.067,6.067,0,0,1,250.306,301.295Z" transform="translate(-140.447 -195.317)" fill="#5084da"/>
  </g>
  <path id="Path_6056" data-name="Path 6056" d="M347.273,332.292v-6.933a4.131,4.131,0,0,0-4.131-4.131h-.36V314.8a17.131,17.131,0,0,0-34.262,0v6.426h-.36a4.131,4.131,0,0,0-4.131,4.131v6.933ZM314.182,314.8a11.47,11.47,0,1,1,22.939,0v6.426H314.182Z" transform="translate(-119.845 -192.682)" opacity="0.09"/>
  <path id="Path_6057" data-name="Path 6057" d="M367.709,238.186a10.93,10.93,0,0,0-6.2-2.456c-.007-.228-.007-.453,0-.744a4.3,4.3,0,0,0,2.982-2.808c1.71-1.647,2.872-3.687,2.311-6.257a.5.5,0,0,1,.062-.378c-.736-1.316-2.092-1.949-3.6-3.312-5.057-4.582-11.067,1.785-8.791,4.406a4.705,4.705,0,0,1,.637,1.444c0,.016-.01.027-.014.044a2.175,2.175,0,0,0,.371,1.729,7.542,7.542,0,0,1,.045.774.452.452,0,0,1,.029.073,3.09,3.09,0,0,0,.425,1.078,4.017,4.017,0,0,0,2.577,3.026c.12.04.243.079.373.109a1.87,1.87,0,0,1,.054.826,9.943,9.943,0,0,0-4.047,1.355c-9.667,4.673-19.224,19.731-18.171,23.05s3.727,7.207,5.521,9.8l.282-.05.434,1.5a1.037,1.037,0,0,0,1.344.894,1.878,1.878,0,0,0,1.21-.345,1.293,1.293,0,0,0,.353-.644,2.731,2.731,0,0,0-.321-1.938l.21-.037s-4.167-6.236-4.015-10.039c.055-1.389,3.308-4.663,5.954-7.1-.061.847-.094,1.709-.094,2.583l-1.268,30.306s1.094.216,2.848.5l1.7,18.1h6.851l.163-17.048.268.019.238.017q.506.036,1.015.066l.345.019.369.021.673,16.906h6.754l1.383-17.218.025-.005c.279-.045.554-.093.82-.147.119-.024.233-.05.349-.077q.337-.075.658-.159c.116-.031.231-.062.344-.1.215-.062.423-.13.626-.2.094-.033.191-.064.282-.1.287-.108.563-.223.822-.349l-.139-32.781c0-.707-.022-1.395-.062-2.064,0-.05-.007-.1-.01-.151q-.061-.937-.172-1.824c-.007-.059-.015-.118-.023-.176s-.013-.107-.021-.16c1.336.265,3.075.585,5.349.968a9.689,9.689,0,0,0,4.291-.266V242.24C376.462,242.886,370.128,239.646,367.709,238.186Z" transform="translate(-132.186 -163.557)" opacity="0.09"/>
  <g id="Group_7307" data-name="Group 7307" transform="translate(132.716 71.866)">
    <ellipse id="Ellipse_373" data-name="Ellipse 373" cx="10.536" cy="10.536" rx="10.536" ry="10.536" fill="#94ebff" opacity="0.3"/>
    <ellipse id="Ellipse_374" data-name="Ellipse 374" cx="5.718" cy="5.718" rx="5.718" ry="5.718" transform="translate(4.818 4.818)" fill="#94ebff" opacity="0.5"/>
  </g>
  <g id="Group_7308" data-name="Group 7308" transform="translate(179.912 104.989)">
    <path id="Path_6058" data-name="Path 6058" d="M321.511,297.671A17.15,17.15,0,0,0,304.38,314.8v16.474h34.261V314.8A17.15,17.15,0,0,0,321.511,297.671Zm-11.47,27.943V314.8a11.47,11.47,0,0,1,22.939,0v10.813Z" transform="translate(-299.889 -297.671)" fill="#f9714e"/>
    <path id="Path_6059" data-name="Path 6059" d="M323.608,303.114a13.7,13.7,0,0,0-13.679,13.679v13.154h27.358V316.793A13.7,13.7,0,0,0,323.608,303.114Zm11.47,24.558H312.138V316.859a11.47,11.47,0,1,1,22.939,0Z" transform="translate(-301.987 -299.728)" fill="#f9714e" opacity="0.4"/>
    <rect id="Rectangle_1440" data-name="Rectangle 1440" width="43.243" height="34.496" rx="6.766" transform="translate(0 23.557)" fill="#ffb255"/>
    <path id="Path_6060" data-name="Path 6060" d="M334.387,355.612a6.287,6.287,0,1,0-9.18,5.577v6.8h5.788v-6.8A6.282,6.282,0,0,0,334.387,355.612Z" transform="translate(-306.479 -317.196)" fill="#f9714e"/>
    <path id="Path_6061" data-name="Path 6061" d="M336.415,335.544H326.027a64.71,64.71,0,0,1-10.29,19.556c-4.178,5.429-10.756,12.318-18.2,12.174a4.129,4.129,0,0,0,3.895,2.765h34.981a4.13,4.13,0,0,0,4.131-4.13V339.674A4.13,4.13,0,0,0,336.415,335.544Z" transform="translate(-297.303 -311.987)" fill="#ffb255" opacity="0.4"/>
  </g>
  <g id="Group_7313" data-name="Group 7313" transform="translate(200.22 57.062)">
    <path id="Path_6062" data-name="Path 6062" d="M338.641,297.1l.825,2.849a1.036,1.036,0,0,0,1.343.894,1.88,1.88,0,0,0,1.21-.345,1.293,1.293,0,0,0,.353-.644,2.8,2.8,0,0,0-.395-2.072,8.291,8.291,0,0,0-1.408-1.636" transform="translate(-333.148 -249.17)" fill="#ffc2d3"/>
    <path id="Path_6063" data-name="Path 6063" d="M420.96,242.438a22.719,22.719,0,0,1,1.353-3.865,1.891,1.891,0,0,1,.213,1.375,3.114,3.114,0,0,1,1.515-1.6.253.253,0,0,1,.414.205,4.381,4.381,0,0,1-2.614,5.14" transform="translate(-364.264 -227.3)" fill="#ffc2d3"/>
    <path id="Path_6064" data-name="Path 6064" d="M373.692,387.308c2.42.59,4.446,1.3,5.557,2.3h-9.328l.179-2.165Z" transform="translate(-344.972 -283.627)" fill="#5084da"/>
    <path id="Path_6065" data-name="Path 6065" d="M354.267,387.308c-2.42.59-4.446,1.3-5.557,2.3h9.328l-.179-2.165Z" transform="translate(-336.954 -283.627)" fill="#5084da"/>
    <g id="Group_7310" data-name="Group 7310" transform="translate(10.936 47.926)">
      <g id="Group_7309" data-name="Group 7309">
        <path id="Path_6066" data-name="Path 6066" d="M370.081,299.069l-4.4,54.737a14.974,14.974,0,0,1-2.068.376,9.172,9.172,0,0,1-1.209-.168c-.51-.1-.954-.208-.954-.208l-1.646-41.376h-2.066l-.4,41.376a8.95,8.95,0,0,1-2.243.328,11.99,11.99,0,0,1-2.432-.328l-5.279-56.135Z" transform="translate(-347.392 -297.671)" fill="#2e2c84"/>
      </g>
    </g>
    <g id="Group_7311" data-name="Group 7311" transform="translate(17.443 48.328)" opacity="0.3">
      <path id="Path_6067" data-name="Path 6067" d="M365.6,298.794l-7.746-.478c-.095,10.081,1.422,46.108,1.577,56.049a9.3,9.3,0,0,0,1.866-.315l.395-41.376h2.066l1.646,41.376s.444.1.954.208c.151.027.3.053.453.078C366.814,343.067,365.8,303.428,365.6,298.794Z" transform="translate(-357.853 -298.316)" fill="#2e2c84" opacity="0.5"/>
    </g>
    <g id="Group_7312" data-name="Group 7312" transform="translate(17.303)">
      <path id="Path_6068" data-name="Path 6068" d="M359.164,230.631a.517.517,0,0,1,.03.073c.333,1.81,2.051,2.737,3.96,3.264,1.552.429,1.912.616,3.158-.284,2.585-1.866,4.885-4.345,4.138-7.763a.5.5,0,0,1,.062-.378c-.735-1.316-2.092-1.948-3.6-3.312-5.057-4.582-11.067,1.785-8.791,4.406A8.061,8.061,0,0,1,359.164,230.631Z" transform="translate(-357.628 -220.619)" fill="#001f64"/>
    </g>
    <path id="Path_6069" data-name="Path 6069" d="M371.785,261.693c0-10.4-4.307-16.875-12.555-16.875s-12.575,8.7-12.575,19.1l-1.268,30.306s19.227,3.813,26.536.244Z" transform="translate(-335.698 -229.766)" fill="#8fc2ff"/>
    <path id="Path_6070" data-name="Path 6070" d="M375.927,267.237a27.328,27.328,0,0,0-1-7.752c-.731,11.323-1.725,41.47-18.578,41.349,6.264.783,15.234,1.373,19.72-.817Z" transform="translate(-339.841 -235.31)" fill="#8fc2ff" opacity="0.3"/>
    <path id="Path_6071" data-name="Path 6071" d="M368.747,232.73c-.309-2.048-2.133-4.1-4.361-3.037a4.5,4.5,0,0,1-4.075.137c-.034.394-.083.969-.126,1.572-.247-.452-.659-.522-.783.044-.132.605.031,1.731.683,1.943,0,.105,0,.211,0,.3.03,1.531.656,3.966,3.139,4.547a2.5,2.5,0,0,1-.067,1.437c.137.481,2.068.789,2.706.223a11.322,11.322,0,0,1-.051-1.592c1.469-.236,2.7-1.684,3.249-3.545C371.276,233.519,369.691,231.253,368.747,232.73Z" transform="translate(-340.979 -223.939)" fill="#ffc2d3"/>
    <path id="Path_6072" data-name="Path 6072" d="M370.868,233.4a4.559,4.559,0,0,0-1.007-2.231c.061,3.558-1.454,6.865-4.89,7.629.121.04.243.079.373.109a2.5,2.5,0,0,1-.067,1.437c.137.481,2.068.789,2.706.223a11.322,11.322,0,0,1-.051-1.592c1.469-.236,2.7-1.684,3.249-3.545C373.4,234.185,371.812,231.919,370.868,233.4Z" transform="translate(-343.101 -224.605)" fill="#ffc2d3" opacity="0.3"/>
    <path id="Path_6073" data-name="Path 6073" d="M348.061,247.113c-9.668,4.673-19.224,19.731-18.172,23.05s3.727,7.207,5.521,9.8l3.512-.618s-4.167-6.236-4.015-10.038c.093-2.346,9.311-10.068,9.311-10.068Z" transform="translate(-329.81 -230.634)" fill="#8fc2ff"/>
    <path id="Path_6074" data-name="Path 6074" d="M378.3,245.664c1.515,1.088,14.145,8.656,21.091,1.972,5.016-4.827,5.521-5.759,5.521-5.759l1.721,3.047s-7.85,13.853-17.346,12.251-9.737-2.1-9.737-2.1Z" transform="translate(-348.139 -228.655)" fill="#8fc2ff"/>
  </g>
  <g id="Group_7330" data-name="Group 7330" transform="translate(65.285 59.191)">
    <path id="Path_6075" data-name="Path 6075" d="M121.835,305.069a15.209,15.209,0,0,0-8.633,6.525h25.659a15.207,15.207,0,0,0-8.633-6.525V242.206h-8.393v1.025h-8.962V250.8h8.962v1.8h-8.962v7.567h8.962Z" transform="translate(-112.873 -230.908)" opacity="0.09"/>
    <g id="Group_7315" data-name="Group 7315" transform="translate(3.51 11.298)">
      <rect id="Rectangle_1441" data-name="Rectangle 1441" width="10.75" height="7.567" transform="translate(12.734 8.592) rotate(180)" fill="#ffb255"/>
      <rect id="Rectangle_1442" data-name="Rectangle 1442" width="10.75" height="7.567" transform="translate(12.734 17.961) rotate(180)" fill="#ffb255"/>
      <rect id="Rectangle_1443" data-name="Rectangle 1443" width="2.74" height="7.567" transform="translate(12.734 8.592) rotate(180)" fill="#ffc87c" opacity="0.5"/>
      <rect id="Rectangle_1444" data-name="Rectangle 1444" width="2.74" height="7.567" transform="translate(12.734 17.961) rotate(180)" fill="#ffc87c" opacity="0.5"/>
      <rect id="Rectangle_1445" data-name="Rectangle 1445" width="8.393" height="65.77" transform="translate(19.339 65.77) rotate(180)" fill="#ffb255"/>
      <rect id="Rectangle_1446" data-name="Rectangle 1446" width="1.284" height="65.77" rx="0.642" transform="translate(15.785 68.034) rotate(-180)" fill="#ffc87c" opacity="0.5"/>
      <g id="Group_7314" data-name="Group 7314" transform="translate(0 62.267)">
        <path id="Path_6076" data-name="Path 6076" d="M118.516,357.456A15.143,15.143,0,1,1,133.659,372.6,15.16,15.16,0,0,1,118.516,357.456Zm7.809,0a7.334,7.334,0,1,0,7.334-7.335A7.343,7.343,0,0,0,126.325,357.456Z" transform="translate(-118.516 -342.313)" fill="#ffb255"/>
      </g>
      <path id="Path_6077" data-name="Path 6077" d="M129.923,361.767a8.048,8.048,0,1,0,8.047-8.047A8.057,8.057,0,0,0,129.923,361.767Zm.713,0a7.334,7.334,0,1,1,7.334,7.335A7.343,7.343,0,0,1,130.636,361.767Z" transform="translate(-122.828 -284.358)" fill="#ffc87c" opacity="0.5"/>
    </g>
    <g id="Group_7329" data-name="Group 7329" transform="translate(17.794)">
      <path id="Path_6078" data-name="Path 6078" d="M197.407,249.448c-2.656,2.354-12.23,12.38-13.985,6.924-1.39-4.32-4.3-10.265-6.011-12.259a8.153,8.153,0,0,0-4.143-2.54v-.691c1.661-.007,4.258-.332,4.258-6.315a10.733,10.733,0,0,0-.483-3.781,1.828,1.828,0,0,0,.113-2.059,6.009,6.009,0,0,0-2.5-1.79c-1.92-.85-4.428-1.247-6.27-.054a7.959,7.959,0,0,0-2.316-2.024,5.6,5.6,0,0,0-2.528-.815,4.9,4.9,0,0,0-4.126,2.893,6.463,6.463,0,0,0-.7,4.166,4.651,4.651,0,0,0,2.475,3.328,2.219,2.219,0,0,0,1.225.241,2.543,2.543,0,0,0,1.409-.852c.945-.983,1.106-2.156,1.8-3.22a1.176,1.176,0,0,1,.386-.361,7.663,7.663,0,0,0-.326,2.131,12.742,12.742,0,0,0,1.664,5.9,3.408,3.408,0,0,0,.988,1.291,2.434,2.434,0,0,0,2.007.3l-.192,1.466a10.625,10.625,0,0,0-3.892,1.137v0c-7.2,1.654-12.625,19.323-22.25,18.152v.024c-1.17-.327-2.455-.419-2.522.727-.132,2.244,1.262,2.531,2.522,2.346v.047a18.37,18.37,0,0,0,14.064-6.349c-2.589,14.593-1.554,33.7-1.554,33.7.694.1,1.385.191,2.073.276l1.179,13.371H165.9L165.917,292c1.237.051,2.466.077,3.684.068l.144,12.691h7.108l1.373-13.308c1.259-.177,2.507-.389,3.739-.647-.254-8.027-.287-18.519-.82-27.607a2.953,2.953,0,0,0,1.317.756c.835.207,4.434,4.357,7.022,1.2,2.626-3.2,8.112-9.805,10.122-13.209C199.172,250.82,198.013,250.486,197.407,249.448Z" transform="translate(-141.48 -224.042)" opacity="0.09"/>
      <path id="Path_6079" data-name="Path 6079" d="M193.644,248.6l-.4,3.1,3.257.357v-3.267Z" transform="translate(-161.045 -233.326)" fill="#f9acc8"/>
      <path id="Path_6080" data-name="Path 6080" d="M150.832,284.447s-4.311-2.124-4.436,0c-.238,4.024,4.436,1.756,4.436,1.756Z" transform="translate(-143.335 -246.518)" opacity="0.1"/>
      <path id="Path_6081" data-name="Path 6081" d="M151.813,283.466s-4.312-2.125-4.437,0c-.238,4.024,4.437,1.756,4.437,1.756Z" transform="translate(-143.706 -246.147)" fill="#ffc2d3"/>
      <g id="Group_7316" data-name="Group 7316" transform="translate(29.658 5.322)">
        <path id="Path_6082" data-name="Path 6082" d="M189.161,237.8c0,2.815,2.907,6.316,5.721,6.316,1.657,0,4.33-.248,4.33-6.316,0-6.379-2.139-5.1-4.954-5.1A5.1,5.1,0,0,0,189.161,237.8Z" transform="translate(-189.161 -232.598)" fill="#ffc2d3"/>
      </g>
      <path id="Path_6083" data-name="Path 6083" d="M193.445,240.227a22.2,22.2,0,0,1,1.186-7.471c-.123,0-.248.007-.374.007a5.1,5.1,0,0,0-5.1,5.1c0,2.762,2.8,6.175,5.561,6.3A5.685,5.685,0,0,1,193.445,240.227Z" transform="translate(-159.503 -227.335)" fill="#ffc2d3" opacity="0.3"/>
      <path id="Path_6084" data-name="Path 6084" d="M197.05,232.438c-.451.067-.932-.148-1.356.022-.677.274-.723,1.306-1.347,1.686-.78.474-1.955-.346-2.637.262-.4.359-.355.991-.313,1.531a11.491,11.491,0,0,1-.465,4.231c-.1.317.322.884.072,1.1-.415.36-1.615.045-2.066-.27a3.451,3.451,0,0,1-.988-1.3,12.967,12.967,0,0,1-1.664-5.961,6.755,6.755,0,0,1,2.552-5.445c1.854-1.327,4.448-.924,6.421-.042a6.017,6.017,0,0,1,2.5,1.808C198.21,230.815,198.139,232.276,197.05,232.438Z" transform="translate(-158.416 -225.325)" fill="#ffb255"/>
      <path id="Path_6085" data-name="Path 6085" d="M198.253,229.823c-.664.594-1.334,1.666-1.834,2.016a7.742,7.742,0,0,1-2.308.823c-3.625,1.113-3.876,6.673-2.293,9.641a1.223,1.223,0,0,0,.927-.129c.249-.216-.169-.784-.072-1.1a11.491,11.491,0,0,0,.465-4.231c-.042-.54-.088-1.172.313-1.531.682-.609,1.857.211,2.637-.262.624-.379.67-1.413,1.347-1.686.424-.17.905.045,1.356-.022,1.09-.162,1.161-1.623.705-2.381A3.892,3.892,0,0,0,198.253,229.823Z" transform="translate(-160.158 -226.227)" fill="#ffc87c" opacity="0.5"/>
      <path id="Path_6086" data-name="Path 6086" d="M182.376,224.866a5.56,5.56,0,0,0-2.529-.824,4.9,4.9,0,0,0-4.126,2.923,6.586,6.586,0,0,0-.7,4.208,4.7,4.7,0,0,0,2.476,3.363,2.2,2.2,0,0,0,1.224.243,2.531,2.531,0,0,0,1.409-.861c.945-.993,1.107-2.178,1.8-3.253.562-.869,1.793-.512,2.616-1.079C186.632,228.148,183.661,225.578,182.376,224.866Z" transform="translate(-154.12 -224.042)" fill="#ffb255"/>
      <path id="Path_6087" data-name="Path 6087" d="M184.245,230.872c-.379-.2-.676-.55-1.052-.739-.537-.585-3.29-.891-3.865,2.942a4.558,4.558,0,0,1-1.957,2.9,4.056,4.056,0,0,0,1.05.733,2.2,2.2,0,0,0,1.224.243,2.533,2.533,0,0,0,1.409-.861c.945-.993,1.107-2.178,1.8-3.253.562-.869,1.793-.512,2.616-1.079a1.67,1.67,0,0,0,.592-.674A2.219,2.219,0,0,1,184.245,230.872Z" transform="translate(-155.047 -226.212)" fill="#ffc87c" opacity="0.5"/>
      <path id="Path_6088" data-name="Path 6088" d="M183.21,387.308c2.42.59,4.445,1.3,5.557,2.3h-9.329l.179-2.165Z" transform="translate(-155.828 -285.756)" fill="#f9714e"/>
      <path id="Path_6089" data-name="Path 6089" d="M196.654,387.308c2.42.59,4.446,1.3,5.557,2.3h-9.328l.179-2.165Z" transform="translate(-160.91 -285.756)" fill="#f9714e"/>
      <path id="Path_6090" data-name="Path 6090" d="M235.577,261.466a1.214,1.214,0,0,0-.2-.087,1.2,1.2,0,0,0-.963.362,16.115,16.115,0,0,0-1.892,1.632h0a2.249,2.249,0,0,0-.362.4,1.508,1.508,0,0,0-.113,1.617,1.371,1.371,0,0,0,1.115.655,2.89,2.89,0,0,0,1.959-.856,1.367,1.367,0,0,0,.084-1.662,1.345,1.345,0,0,0-.858-.707,7.292,7.292,0,0,0,1.114-.819.654.654,0,0,0,.2-.254A.237.237,0,0,0,235.577,261.466Z" transform="translate(-175.646 -238.147)" opacity="0.1"/>
      <g id="Group_7319" data-name="Group 7319" transform="translate(56.363 22.496)">
        <g id="Group_7317" data-name="Group 7317" transform="translate(0 1.417)">
          <path id="Path_6091" data-name="Path 6091" d="M235.44,263.243a1.368,1.368,0,0,1-.085,1.663,2.885,2.885,0,0,1-1.959.855,1.372,1.372,0,0,1-1.115-.655,1.51,1.51,0,0,1,.113-1.617C233.072,262.5,234.751,261.954,235.44,263.243Z" transform="translate(-232.095 -262.488)" fill="#ffc2d3"/>
        </g>
        <g id="Group_7318" data-name="Group 7318" transform="translate(0.657)">
          <path id="Path_6092" data-name="Path 6092" d="M234.742,261.826a7.269,7.269,0,0,0,1.353-.97.648.648,0,0,0,.2-.254.235.235,0,0,0-.088-.284.844.844,0,0,0-1.158.275,16,16,0,0,0-1.892,1.632A3.371,3.371,0,0,0,234.742,261.826Z" transform="translate(-233.152 -260.209)" fill="#ffc2d3"/>
        </g>
      </g>
      <g id="Group_7320" data-name="Group 7320" transform="translate(38.639 20.07)">
        <path id="Path_6093" data-name="Path 6093" d="M211.692,268.918a83.117,83.117,0,0,0,9.333-7.55.473.473,0,0,1,.676.047c.575.683,1.513,1.7,1.414,2.13a1.462,1.462,0,0,1-.389.612l-8.775,9.725a9.575,9.575,0,0,1-1.888,1.748,3.234,3.234,0,0,1-2.457.517c-1.408-.348-2.2-1.8-2.963-3.029-3.779-6.07-3.157-8.265-2.7-10.134.322-1.3.727-2.584.962-3.906.074-.417-.925-2.74-.355-2.769,1.707,1.994,4.266,8.069,6.01,12.259A.766.766,0,0,0,211.692,268.918Z" transform="translate(-203.6 -256.309)" fill="#f9714e"/>
      </g>
      <g id="Group_7328" data-name="Group 7328" transform="translate(19.431 50.813)">
        <g id="Group_7321" data-name="Group 7321">
          <path id="Path_6094" data-name="Path 6094" d="M172.72,307.008l4.4,49.879a16.3,16.3,0,0,0,2.068.342,10.1,10.1,0,0,0,1.209-.153c.509-.095.954-.189.954-.189l.044-37.7h3.637l.426,37.7a9.754,9.754,0,0,0,2.243.3,13.086,13.086,0,0,0,2.432-.3l5.279-51.153Z" transform="translate(-172.72 -305.734)" fill="#4b48b5"/>
        </g>
        <g id="Group_7322" data-name="Group 7322" transform="translate(11.314 5.01)">
          <path id="Path_6095" data-name="Path 6095" d="M190.909,313.791a13.314,13.314,0,0,0,.5,4.749,2.972,2.972,0,0,0,3,1.951c2.178-.045,3.688-1.232,3.7-3.431a21.617,21.617,0,0,1,.283-3.271Z" transform="translate(-190.909 -313.789)" fill="#568edb"/>
        </g>
        <g id="Group_7323" data-name="Group 7323" transform="translate(0.986 5.015)">
          <path id="Path_6096" data-name="Path 6096" d="M174.306,313.8a18.9,18.9,0,0,0,.368,4.751c.326,1.2,1.058,1.987,2.1,1.964,1.516-.034,2.362-1.72,2.56-3.414.032-.28.083-3.264.182-3.269Z" transform="translate(-174.306 -313.796)" fill="#568edb"/>
        </g>
        <g id="Group_7324" data-name="Group 7324" transform="translate(0.066 2.952)">
          <path id="Path_6097" data-name="Path 6097" d="M181.43,320.972h.016a.092.092,0,0,0,.073-.106,58.706,58.706,0,0,1-.178-9.941.09.09,0,0,0-.026-.07.1.1,0,0,0-.069-.027c-.059,0-5.869.273-8.307-.344a.091.091,0,0,0-.044.177c2.283.577,7.468.387,8.26.353a57.339,57.339,0,0,0,.187,9.883A.092.092,0,0,0,181.43,320.972Z" transform="translate(-172.825 -310.48)" fill="#5e9ce4"/>
        </g>
        <g id="Group_7325" data-name="Group 7325" transform="translate(9.012 1.985)">
          <path id="Path_6098" data-name="Path 6098" d="M187.6,320.384h.008a.092.092,0,0,0,.083-.1,54.266,54.266,0,0,1-.128-9.827,77.1,77.1,0,0,0,12.515-1.353.091.091,0,0,0,.073-.106.089.089,0,0,0-.106-.073,76.617,76.617,0,0,1-12.565,1.351.09.09,0,0,0-.09.083,54.175,54.175,0,0,0,.119,9.941A.091.091,0,0,0,187.6,320.384Z" transform="translate(-187.209 -308.925)" fill="#5e9ce4"/>
        </g>
        <g id="Group_7326" data-name="Group 7326" transform="translate(6.542 13.327)" opacity="0.16">
          <path id="Path_6099" data-name="Path 6099" d="M184.371,365.176c.509-.095.954-.189.954-.189l.044-37.7h.305a.22.22,0,0,0-.305-.095,3.782,3.782,0,0,0-1.493,1.4,2.891,2.891,0,0,0-.568,1.638C183.017,341.845,183.693,350.692,184.371,365.176Z" transform="translate(-183.238 -327.16)" fill="#4e84d9"/>
        </g>
        <g id="Group_7327" data-name="Group 7327" transform="translate(16.955 2.813)">
          <path id="Path_6100" data-name="Path 6100" d="M200.061,357.55a.091.091,0,0,1-.082-.1l.077-.748a.088.088,0,0,1,.1-.081.091.091,0,0,1,.081.1l-.076.747a.091.091,0,0,1-.09.082Zm.225-2.2a.09.09,0,0,1-.081-.1l.147-1.448a.085.085,0,0,1,.1-.081.09.09,0,0,1,.081.1l-.148,1.449a.091.091,0,0,1-.09.082Zm.3-2.9a.091.091,0,0,1-.081-.1l.148-1.449a.091.091,0,1,1,.18.019l-.147,1.448a.091.091,0,0,1-.091.082Zm.3-2.9a.09.09,0,0,1-.081-.1l.148-1.449c0-.05.053-.1.1-.081a.09.09,0,0,1,.081.1l-.148,1.449a.09.09,0,0,1-.09.081Zm.3-2.9a.09.09,0,0,1-.081-.1l.147-1.449a.087.087,0,0,1,.1-.081.091.091,0,0,1,.081.1l-.148,1.449a.091.091,0,0,1-.09.082Zm.3-2.9a.09.09,0,0,1-.081-.1l.148-1.449c0-.05.05-.1.1-.081a.09.09,0,0,1,.081.1l-.148,1.448a.09.09,0,0,1-.09.082Zm.3-2.9a.09.09,0,0,1-.081-.1l.149-1.449a.087.087,0,0,1,.1-.081.09.09,0,0,1,.081.1l-.149,1.449a.09.09,0,0,1-.09.081Zm.3-2.9a.091.091,0,0,1-.081-.1l.148-1.448c0-.05.053-.1.1-.081a.091.091,0,0,1,.081.1l-.148,1.449a.09.09,0,0,1-.09.081Zm.3-2.9a.09.09,0,0,1-.081-.1l.148-1.449a.085.085,0,0,1,.1-.081.09.09,0,0,1,.081.1l-.148,1.449a.09.09,0,0,1-.09.082Zm.3-2.9a.09.09,0,0,1-.081-.1l.149-1.449a.09.09,0,0,1,.09-.082h.009a.09.09,0,0,1,.081.1l-.149,1.449a.09.09,0,0,1-.09.081Zm.3-2.9a.091.091,0,0,1-.081-.1l.148-1.448c0-.05.053-.1.1-.081a.09.09,0,0,1,.081.1l-.147,1.449a.091.091,0,0,1-.09.082Zm.3-2.9a.09.09,0,0,1-.081-.1l.148-1.449a.087.087,0,0,1,.1-.081.09.09,0,0,1,.081.1l-.148,1.448a.09.09,0,0,1-.09.082Zm.3-2.9a.09.09,0,0,1-.081-.1l.148-1.449a.085.085,0,0,1,.1-.081.09.09,0,0,1,.081.1l-.149,1.449a.09.09,0,0,1-.09.081Zm.3-2.9a.091.091,0,0,1-.081-.1l.148-1.449a.089.089,0,0,1,.1-.082.09.09,0,0,1,.081.1l-.147,1.449a.091.091,0,0,1-.091.082Zm.3-2.9a.09.09,0,0,1-.081-.1l.148-1.449c0-.05.053-.1.1-.081a.09.09,0,0,1,.081.1l-.148,1.448a.091.091,0,0,1-.09.082Zm.3-2.9a.091.091,0,0,1-.081-.1l.149-1.449a.086.086,0,0,1,.1-.081.091.091,0,0,1,.081.1l-.149,1.449a.09.09,0,0,1-.09.081Zm.3-2.9a.09.09,0,0,1-.081-.1l.148-1.448c0-.05.05-.1.1-.081a.09.09,0,0,1,.081.1l-.148,1.449a.09.09,0,0,1-.09.081Z" transform="translate(-199.979 -310.257)" fill="#5e9ce4"/>
        </g>
      </g>
      <path id="Path_6101" data-name="Path 6101" d="M173.688,253.65c-7.2,1.654-12.624,19.323-22.25,18.152v3.144c4.505,0,10.657-1.438,15.7-8.351C174.432,256.6,173.688,253.65,173.688,253.65Z" transform="translate(-145.244 -235.234)" fill="#f9714e"/>
      <path id="Path_6102" data-name="Path 6102" d="M173.688,253.65c-7.2,1.654-12.624,19.323-22.25,18.152v3.144c4.505,0,10.657-1.438,15.7-8.351C174.432,256.6,173.688,253.65,173.688,253.65Z" transform="translate(-145.244 -235.234)" fill="#f9714e" opacity="0.3"/>
      <path id="Path_6103" data-name="Path 6103" d="M192.316,254.59c4.419,5.064,4.05,30.743,4.554,46.689a73.044,73.044,0,0,1-25.445.309s-1.391-25.693,3.088-40.247C177.554,251.46,187.653,249.246,192.316,254.59Z" transform="translate(-152.722 -234.52)" fill="#f9714e"/>
      <path id="Path_6104" data-name="Path 6104" d="M177.52,291.7a56.554,56.554,0,0,1-2.382-16.695c.014-4.768.131-9.945,1.383-14.652a15.7,15.7,0,0,0-2.008,4.232c-4.479,14.554-3.088,40.247-3.088,40.247a87.124,87.124,0,0,0,13.231.954A42.642,42.642,0,0,1,177.52,291.7Z" transform="translate(-152.722 -237.769)" fill="#f9714e" opacity="0.3"/>
    </g>
  </g>
  <g id="Group_7331" data-name="Group 7331" transform="translate(27.977 43.771)">
    <path id="Path_6105" data-name="Path 6105" d="M68.16,238.3c.649-.034,5.077-3.314,6.783-4.419a4.674,4.674,0,0,0,1.3-1.1,1.643,1.643,0,0,0,.248-1.616,2.039,2.039,0,0,0-2.073-1.28,4.7,4.7,0,0,0-4.045,1.839C66.828,235.395,68.16,238.3,68.16,238.3Z" transform="translate(-58.571 -210.831)" fill="#00ad9f"/>
    <path id="Path_6106" data-name="Path 6106" d="M98.3,262.953c1.928.866,3.988,1.73,6.084,1.462a2.279,2.279,0,0,0,1.972-1.248,1.823,1.823,0,0,0-.612-1.884,4.352,4.352,0,0,0-1.9-.855,19.065,19.065,0,0,0-8.711.442A22.372,22.372,0,0,0,98.3,262.953Z" transform="translate(-68.862 -222.252)" fill="#00ad9f"/>
    <path id="Path_6107" data-name="Path 6107" d="M119.543,216.416c-.86-.544-1.81-1.27-1.809-2.287a2.033,2.033,0,0,1,2.084-1.8,4.276,4.276,0,0,1,2.733,1.224,7.464,7.464,0,0,1,2.84,6.1S120.5,217.02,119.543,216.416Z" transform="translate(-77.402 -204.193)" fill="#00ad9f"/>
    <path id="Path_6108" data-name="Path 6108" d="M123.4,202.785a4.171,4.171,0,0,1-1.976-1.408,1.343,1.343,0,0,1-.2-1.14c.222-.631.618-1.2,2.208-.909,5.036.914,6.133,4.363,6.133,4.363S124.733,203.36,123.4,202.785Z" transform="translate(-78.697 -199.251)" fill="#00ad9f"/>
    <path id="Path_6109" data-name="Path 6109" d="M148.476,212.77a7.959,7.959,0,0,0,5.379-2.759,4.922,4.922,0,0,0,1.081-2,2.191,2.191,0,0,0-.59-2.106,2.227,2.227,0,0,0-2.608,0,5.243,5.243,0,0,0-1.684,2.193C149.514,209.221,148.476,212.77,148.476,212.77Z" transform="translate(-89.022 -201.606)" fill="#00ad9f"/>
    <path id="Path_6110" data-name="Path 6110" d="M76.277,285.721,61.6,272.786c-2.607-2.3-5.268-4.663-6.919-7.721-3.549-6.573-1.5-15.113,3.29-20.843s11.814-9.113,18.866-11.575,14.394-4.19,21.117-7.445c4.216-2.043,8.456-5.085,9.612-9.625a9.6,9.6,0,0,0-8.734-11.957" transform="translate(-52.892 -200.902)" fill="none" stroke="#086356" stroke-linecap="round" stroke-linejoin="round" stroke-width="1"/>
    <path id="Path_6111" data-name="Path 6111" d="M148.55,209.66c-1.337,4.1-6.542,6.6-8.918,10.155" transform="translate(-85.679 -203.185)" fill="none" stroke="#086356" stroke-linecap="round" stroke-linejoin="round" stroke-width="1"/>
    <path id="Path_6112" data-name="Path 6112" d="M123.921,217.248a39.1,39.1,0,0,1,3.147,3.17,6.9,6.9,0,0,1-.748,9.155" transform="translate(-79.741 -206.054)" fill="none" stroke="#086356" stroke-linecap="round" stroke-linejoin="round" stroke-width="1"/>
    <path id="Path_6113" data-name="Path 6113" d="M81.576,254.185a27.913,27.913,0,0,0,15.431,5.752" transform="translate(-63.734 -220.016)" fill="none" stroke="#086356" stroke-linecap="round" stroke-linejoin="round" stroke-width="1"/>
    <path id="Path_6114" data-name="Path 6114" d="M65.248,253.835a15.229,15.229,0,0,1,5.12-16.6" transform="translate(-57.285 -213.609)" fill="none" stroke="#086356" stroke-linecap="round" stroke-linejoin="round" stroke-width="1"/>
  </g>
  <g id="Group_7332" data-name="Group 7332" transform="translate(206.357)">
    <path id="Path_6115" data-name="Path 6115" d="M340.534,132.93a2.162,2.162,0,0,1,.312-2.158,1.583,1.583,0,0,1,1.686-.379c4.278,1.887,3.815,8.581,3.815,8.581S342.291,138.387,340.534,132.93Z" transform="translate(-339.946 -129.411)" fill="#00ad9f"/>
    <path id="Path_6116" data-name="Path 6116" d="M340.161,153.745c-2.767,5.017,7.068,4.634,10.615,1.68C350.776,155.425,342.543,149.427,340.161,153.745Z" transform="translate(-339.676 -137.688)" fill="#00ad9f"/>
    <path id="Path_6117" data-name="Path 6117" d="M360.069,132.778a2.657,2.657,0,0,1-.178-3.157,2.423,2.423,0,0,1,2.313-.689,5.415,5.415,0,0,1,2.6,1.589,8.492,8.492,0,0,1,1.715,7.992S361.163,134.282,360.069,132.778Z" transform="translate(-347.149 -128.879)" fill="#00ad9f"/>
    <path id="Path_6118" data-name="Path 6118" d="M423.166,153.465a2.22,2.22,0,0,1,.422-2.282,1.93,1.93,0,0,1,1.439-.431,4.364,4.364,0,0,1,1.471.44,4.707,4.707,0,0,1,2.265,2.258,9.224,9.224,0,0,1,.39,5.624S423.761,155.412,423.166,153.465Z" transform="translate(-371.185 -137.144)" fill="#00ad9f"/>
    <path id="Path_6119" data-name="Path 6119" d="M398.4,168.985a6.3,6.3,0,0,0-6.522-1.052,3.345,3.345,0,0,0-1.4,1.05,3.218,3.218,0,0,0,.3,3.71,8.155,8.155,0,0,0,3.236,2.248c2.189,1,5.586,1.2,7.916,1.792A11.281,11.281,0,0,0,398.4,168.985Z" transform="translate(-358.707 -143.459)" fill="#00ad9f"/>
    <path id="Path_6120" data-name="Path 6120" d="M345.551,136.266c1.447,4.751,5.542,8.336,10.1,10.275s9.581,2.451,14.524,2.772,9.943.48,14.723,1.781c4.658,1.268,9.3,3.91,11.3,8.317,2.433,5.363.279,11.777-3.137,16.571s-8.015,8.658-11.32,13.529c-1.518,2.237-2.785,4.856-2.478,7.544.409,3.583,3.419,6.223,6.216,8.49" transform="translate(-341.897 -131.672)" fill="none" stroke="#086356" stroke-linecap="round" stroke-linejoin="round" stroke-width="1"/>
    <path id="Path_6121" data-name="Path 6121" d="M363.865,133.464a28.465,28.465,0,0,1,6.53,14.175" transform="translate(-348.819 -130.612)" fill="none" stroke="#086356" stroke-linecap="round" stroke-linejoin="round" stroke-width="1"/>
    <path id="Path_6122" data-name="Path 6122" d="M346.16,155.172a22.624,22.624,0,0,0,5.708,1.005,8.708,8.708,0,0,0,5.574-2.422" transform="translate(-342.127 -138.282)" fill="none" stroke="#086356" stroke-linecap="round" stroke-linejoin="round" stroke-width="1"/>
    <path id="Path_6123" data-name="Path 6123" d="M428.4,155.593a9.715,9.715,0,0,1,2.912,6.538,11.444,11.444,0,0,1-2.884,7.234" transform="translate(-373.213 -138.977)" fill="none" stroke="#086356" stroke-linecap="round" stroke-linejoin="round" stroke-width="1"/>
    <path id="Path_6124" data-name="Path 6124" d="M398.885,173.431a97.6,97.6,0,0,0,10.451,8.6c1.778,1.255,5.309,2.863,6.876,2.449" transform="translate(-362.057 -145.72)" fill="none" stroke="#086356" stroke-linecap="round" stroke-linejoin="round" stroke-width="1"/>
  </g>
</svg>
