<svg xmlns="http://www.w3.org/2000/svg" width="48" height="48" viewBox="0 0 48 48">
    <defs>
        <style>
            .cls-1{fill:#fff}.cls-2{fill:#bd081c}
        </style>
    </defs>
    <g id="logo-pinterest">
        <path id="Path_6892" d="M48 24A24 24 0 1 1 24 0a24 24 0 0 1 24 24" class="cls-1" data-name="Path 6892"/>
        <path id="Path_6893" d="M23.971 2.253a21.746 21.746 0 0 0-7.925 42 20.848 20.848 0 0 1 .076-6.238l2.55-10.81a7.851 7.851 0 0 1-.651-3.229c0-3.024 1.753-5.281 3.935-5.281 1.855 0 2.752 1.393 2.752 3.063 0 1.866-1.188 4.655-1.8 7.241a3.157 3.157 0 0 0 3.22 3.93c3.865 0 6.836-4.076 6.836-9.958 0-5.207-3.741-8.847-9.084-8.847a9.413 9.413 0 0 0-9.82 9.438 8.46 8.46 0 0 0 1.618 4.963.65.65 0 0 1 .151.624c-.165.687-.532 2.164-.6 2.466-.095.4-.315.482-.727.291-2.716-1.264-4.414-5.235-4.414-8.425 0-6.86 4.984-13.16 14.369-13.16 7.544 0 13.407 5.376 13.407 12.56 0 7.495-4.726 13.527-11.285 13.527a5.82 5.82 0 0 1-4.984-2.5s-1.09 4.152-1.355 5.17a24.309 24.309 0 0 1-2.7 5.7 21.749 21.749 0 1 0 6.431-42.525z" class="cls-2" data-name="Path 6893"/>
    </g>
</svg>
