<svg xmlns="http://www.w3.org/2000/svg" width="48" height="39.008" viewBox="0 0 48 39.008">
    <defs>
        <style>
            .cls-1{fill:#69ace0}
        </style>
    </defs>
    <g id="logo-twitter">
        <path id="Path_6891" d="M48 9.113a19.686 19.686 0 0 1-5.656 1.551 9.876 9.876 0 0 0 4.33-5.448 19.717 19.717 0 0 1-6.253 2.39 9.857 9.857 0 0 0-16.781 8.982A27.958 27.958 0 0 1 3.342 6.3a9.859 9.859 0 0 0 3.047 13.146 9.808 9.808 0 0 1-4.46-1.232v.124a9.854 9.854 0 0 0 7.9 9.656 9.873 9.873 0 0 1-4.447.169A9.858 9.858 0 0 0 14.579 35a19.759 19.759 0 0 1-12.23 4.215A20.048 20.048 0 0 1 0 39.08a27.874 27.874 0 0 0 15.1 4.42c18.114 0 28.019-15.006 28.019-28.019q0-.64-.028-1.274A20.014 20.014 0 0 0 48 9.113z" class="cls-1" data-name="Path 6891" transform="translate(0 -4.496)"/>
    </g>
</svg>
