<svg xmlns="http://www.w3.org/2000/svg" id="logo-facebook" width="48" height="48" viewBox="0 0 48 48">
    <defs>
        <style>
            .cls-1{fill:#39579a}.cls-2{fill:#fff}
        </style>
    </defs>
    <path id="White_4_" d="M46 48a2 2 0 0 0 2-2V2a2 2 0 0 0-2-2H2a2 2 0 0 0-2 2v44a2 2 0 0 0 2 2z" class="cls-1"/>
    <path id="White_2_" d="M25.519 48V29H19v-7h6.519v-5.175c0-6.2 3.787-9.576 9.317-9.576a51.324 51.324 0 0 1 5.59.285v6.479H36.59c-3.008 0-3.59 1.429-3.59 3.527V22h7l-1 7h-6v19z" class="cls-2"/>
</svg>
