<svg xmlns="http://www.w3.org/2000/svg" width="190.865" height="62.195" viewBox="0 0 190.865 62.195">
  <g id="Logo" transform="translate(-1443.045 -3084.62)">
    <g id="Group_6278" data-name="Group 6278" transform="translate(1443.045 3084.62)">
      <g id="Group_6276" data-name="Group 6276" transform="translate(137.579)">
        <path id="Path_5695" data-name="Path 5695" d="M1725.652,3111.979l-36.231-26.458a4.575,4.575,0,0,0-2.713-.9,4.639,4.639,0,0,0-4.653,4.64v3.231l1.52,1.112v-4.343a3.131,3.131,0,0,1,3.133-3.119,3.067,3.067,0,0,1,1.813.608l36.231,26.458a3.114,3.114,0,0,1,0,5.029l-36.226,26.452a3.049,3.049,0,0,1-1.818.609,3.132,3.132,0,0,1-3.133-3.12v-4.343l-1.52,1.113v3.229a4.636,4.636,0,0,0,4.653,4.64,4.569,4.569,0,0,0,2.713-.9l36.231-26.456A4.635,4.635,0,0,0,1725.652,3111.979Z" transform="translate(-1674.264 -3084.621)" fill="#fff"/>
        <path id="Path_5696" data-name="Path 5696" d="M1703.719,3116.267l-25.162-18.374-1.521-1.113-.426-.311a4.576,4.576,0,0,0-2.713-.9,4.64,4.64,0,0,0-4.653,4.642v39.6a4.635,4.635,0,0,0,4.653,4.634,4.576,4.576,0,0,0,2.713-.9l.426-.31,1.521-1.113,25.162-18.375A4.63,4.63,0,0,0,1703.719,3116.267Zm-.895,6.253-24.267,17.723-1.521,1.114-1.326.967a3.063,3.063,0,0,1-1.812.6,3.131,3.131,0,0,1-3.133-3.114v-39.6a3.132,3.132,0,0,1,3.133-3.121,3.054,3.054,0,0,1,1.813.609l1.326.966,1.521,1.113,24.267,17.718a3.107,3.107,0,0,1,0,5.023Z" transform="translate(-1669.245 -3088.909)" fill="#fff"/>
      </g>
      <g id="Group_6277" data-name="Group 6277" transform="translate(0 6.773)">
        <path id="Path_5697" data-name="Path 5697" d="M1459.951,3114.518c.346-1.335,2.125-1.533,5.388-1.533,1.532,0,2.175.643,2.175,1.632a3.037,3.037,0,0,1-.148.889l-8.6,23.332a1.839,1.839,0,0,1-1.829,1.334c-1.285,0-4.745-.1-5.14-1.236l-8.6-23.431a3.061,3.061,0,0,1-.148-.889c0-.989.692-1.632,2.224-1.632,3.214,0,4.993.2,5.339,1.533l3.856,14.236a25.837,25.837,0,0,1,.84,4.25,26.271,26.271,0,0,1,.791-4.25Z" transform="translate(-1443.045 -3102.506)" fill="#fff"/>
        <path id="Path_5698" data-name="Path 5698" d="M1503.947,3130.818c.05,1.087-.3,1.631-1.038,1.877a13.608,13.608,0,0,1-4.6.792c-3.806,0-6.574-1.73-6.574-7.267v-18.783c0-1.088,4.053-1.139,5.19-1.139.89,0,1.829.446,1.829,1.237v17.35c0,1.385.148,2.077,1.384,2.077.741,0,1.582-.248,2.324-.3C1503.354,3126.665,1503.848,3129.729,1503.947,3130.818Zm-12.209-33.713c0-1.086,3.9-1.186,5.141-1.186.939,0,1.829.494,1.829,1.334v5.093c0,.889-.889,1.384-1.829,1.384-1.236,0-5.141-.148-5.141-1.237Z" transform="translate(-1462.122 -3095.82)" fill="#fff"/>
        <path id="Path_5699" data-name="Path 5699" d="M1527.236,3108.065a15.1,15.1,0,0,1,6.921-1.829c6.624,0,7.859,4.7,7.859,9.54v8.354c0,6.081-2.669,9.293-10.579,9.293-2.224,0-7.415-.2-10.034-1.731a1.948,1.948,0,0,1-1.138-1.977v-32.774c0-1.086,3.905-1.185,5.191-1.185a1.626,1.626,0,0,1,1.779,1.829Zm-.946,18.882c0,.248,2.373.593,3.955.593,3.361,0,3.855-1.631,3.855-3.361v-8.4c0-1.73-.494-3.311-2.867-3.311-1.78,0-4.894.79-4.943,1.186Z" transform="translate(-1473.299 -3095.756)" fill="#fff"/>
        <path id="Path_5700" data-name="Path 5700" d="M1579.26,3114.172c0-1.088,4-1.187,5.19-1.187.89,0,1.829.445,1.829,1.336v22.1c0,1.434-.4,1.73-1.087,2.027a29.976,29.976,0,0,1-10.578,1.73c-9.343,0-10.034-4.3-10.034-9.541v-16.46c0-1.088,3.855-1.187,5.092-1.187.84,0,1.878.445,1.878,1.336v16.411c0,2.422.741,3.708,3.51,3.708a15.144,15.144,0,0,0,4.2-.593Z" transform="translate(-1490.66 -3102.506)" fill="#fff"/>
        <path id="Path_5701" data-name="Path 5701" d="M1628.351,3112.985c1.78,0,1.829,1.83,1.829,3.312v24.222c0,6.427-1.68,10.727-11.369,10.727a66.607,66.607,0,0,1-9.294-.643c-.84-.347-1.088-.594-1.088-1.928,0-3.312.84-4.1,1.631-4.1.593,0,4.3.495,7.414.495,2.917,0,5.735-.84,5.735-4.4V3138.2a15.894,15.894,0,0,1-7.316,1.977c-6.625,0-7.267-4.4-7.267-9.194v-16.807c0-1.088,3.856-1.187,5.091-1.187.841,0,1.879.445,1.879,1.336v16.411c0,2.521.741,3.015,2.323,3.015,2.125,0,5.29-.84,5.29-1.285v-18.29C1623.211,3113.083,1627.214,3112.985,1628.351,3112.985Z" transform="translate(-1507.84 -3102.506)" fill="#fff"/>
      </g>
    </g>
  </g>
</svg>
