<svg xmlns="http://www.w3.org/2000/svg" width="48.996" height="49.203" viewBox="0 0 48.996 49.203">
    <defs>
        <style>
            .cls-1{fill:#3ac34c;stroke:#fff}.cls-2{fill:#fff;fill-rule:evenodd}
        </style>
    </defs>
    <g id="logo-whatsapp" transform="translate(.711 .5)">
        <path id="Path_6889" d="M.107 48l3.376-12.325A23.794 23.794 0 1 1 24.1 47.588h-.01a23.782 23.782 0 0 1-11.37-2.9z" class="cls-1" data-name="Path 6889" transform="translate(-.107)"/>
        <path id="Path_6890" d="M18.153 13.841c-.483-1.159-.973-1-1.338-1.02a24.12 24.12 0 0 0-1.139-.021 2.184 2.184 0 0 0-1.585.744A6.665 6.665 0 0 0 12.01 18.5c0 2.925 2.13 5.751 2.427 6.148s4.192 6.4 10.156 8.974a34.231 34.231 0 0 0 3.389 1.252 8.154 8.154 0 0 0 3.745.235c1.142-.171 3.517-1.438 4.013-2.826a4.967 4.967 0 0 0 .347-2.826c-.149-.248-.545-.4-1.139-.694s-3.517-1.735-4.062-1.934-.941-.3-1.338.3-1.536 1.934-1.882 2.33-.694.446-1.288.149a16.238 16.238 0 0 1-4.781-2.95 17.912 17.912 0 0 1-3.307-4.117c-.347-.595-.037-.917.261-1.213.267-.266.594-.694.892-1.041a4.054 4.054 0 0 0 .594-.992 1.094 1.094 0 0 0-.05-1.041c-.149-.298-1.338-3.223-1.834-4.413z" class="cls-2" data-name="Path 6890" transform="translate(-.107)"/>
    </g>
</svg>
