<svg id="Group_8878" data-name="Group 8878" xmlns="http://www.w3.org/2000/svg" width="27.398" height="18.238" viewBox="0 0 27.398 18.238">
  <g id="Group_8225" data-name="Group 8225" transform="translate(0 0)">
    <path id="Path_6494" data-name="Path 6494" d="M15.836,4.516a11.264,11.264,0,0,1,8.812,4.207l-4.812-.645L19.5,10.572l7.48,1a1.279,1.279,0,0,0,.167.011A1.258,1.258,0,0,0,28.4,10.494l1-7.48L26.9,2.68l-.557,4.161A13.835,13.835,0,0,0,2,15.836H4.516A11.333,11.333,0,0,1,15.836,4.516Z" transform="translate(-2 -2)" fill="#fff"/>
    <ellipse id="Ellipse_488" data-name="Ellipse 488" cx="4.402" cy="4.402" rx="4.402" ry="4.402" transform="translate(8.167 9.434)" fill="#fff"/>
  </g>
</svg>
