<svg xmlns="http://www.w3.org/2000/svg" width="40" height="40" viewBox="0 0 40 40">
    <defs>
        <style>
            .cls-1,.cls-3{fill:#fff}.cls-1{stroke:#707070}.cls-2{clip-path:url(#clip-path)}
        </style>
        <clipPath id="clip-path">
            <path id="Rectangle_2927" d="M0 0h40v40H0z" class="cls-1" data-name="Rectangle 2927"/>
        </clipPath>
    </defs>
    <g id="Pause" class="cls-2">
        <g id="button-pause">
            <path id="Path_7218" d="M12 1.091H2.909a1.818 1.818 0 0 0-1.818 1.818v36.364a1.818 1.818 0 0 0 1.818 1.818H12a1.818 1.818 0 0 0 1.818-1.818V2.909A1.818 1.818 0 0 0 12 1.091z" class="cls-3" data-name="Path 7218" transform="translate(-1.091 -1.091)"/>
            <path id="Path_7219" d="M28.364 1.091h-9.091a1.818 1.818 0 0 0-1.818 1.818v36.364a1.818 1.818 0 0 0 1.818 1.818h9.091a1.818 1.818 0 0 0 1.818-1.818V2.909a1.818 1.818 0 0 0-1.818-1.818z" class="cls-3" data-name="Path 7219" transform="translate(9.818 -1.091)"/>
        </g>
    </g>
</svg>
