<svg xmlns="http://www.w3.org/2000/svg" xmlns:xlink="http://www.w3.org/1999/xlink" width="156.792" height="19.299" viewBox="0 0 156.792 19.299">
  <defs>
    <clipPath id="clip-path">
      <path id="Path_6139" data-name="Path 6139" d="M277.512-33h-2.147a1.23,1.23,0,0,0-1.127.831c-.006.019-.015.037-.02.056l-.14.619-2.942,12.985c-.068.294-.113.485-.127.535l.006.007a.689.689,0,0,0,.638.871l.006.009h2.223a1.235,1.235,0,0,0,1.125-.822c.007-.022.018-.043.023-.065l3.21-14.14,0,0a.7.7,0,0,0-.724-.885ZM266.525-20.238a6.317,6.317,0,0,1-.94.471,3.444,3.444,0,0,1-1.249.265,2.834,2.834,0,0,1-1.361-.257.894.894,0,0,1-.467-.869,1.739,1.739,0,0,1,.347-1.138,2.487,2.487,0,0,1,1.021-.672,9.044,9.044,0,0,1,1.578-.345c.546-.067,1.625-.188,1.763-.189s.23-.075.168.283c-.027.156-.339,1.4-.482,1.968a1.115,1.115,0,0,1-.38.483Zm4.236-8.755a9.34,9.34,0,0,0-4.277-.744,19.39,19.39,0,0,0-2.9.222c-.712.106-.785.124-1.228.218a1.373,1.373,0,0,0-1.051,1.08l-.292,1.17c-.166.749.272.718.467.66A12.656,12.656,0,0,1,262.9-26.8a10.767,10.767,0,0,1,2.247-.294,6.077,6.077,0,0,1,2.171.3,1.072,1.072,0,0,1,.725,1.057.775.775,0,0,1-.039.33c-.04.092-.116.18-.345.21-1.367.079-2.349.2-3.531.368a11.284,11.284,0,0,0-3.04.813,4.716,4.716,0,0,0-2.059,1.584A4.222,4.222,0,0,0,258.346-20a2.825,2.825,0,0,0,.977,2.209,3.732,3.732,0,0,0,2.525.843,6.9,6.9,0,0,0,1.5-.137,7.693,7.693,0,0,0,1.154-.385A6.038,6.038,0,0,0,265.49-18c.349-.227.591-.388.9-.586l.011.019-.087.375s-.006.005-.006.009l0,.007a.692.692,0,0,0,.639.872l.006.008H267l0,0c.305,0,1.353,0,1.842,0h.342a.045.045,0,0,0,.034-.012,1.236,1.236,0,0,0,1.025-.875l1.748-7.347a4.173,4.173,0,0,0,.091-.6,4.593,4.593,0,0,0,.04-.561,2.446,2.446,0,0,0-1.361-2.3Zm-10.528-1.674a3.6,3.6,0,0,0-1.318-1.375,6.042,6.042,0,0,0-2.082-.744A17.161,17.161,0,0,0,254.016-33l-5.009,0a1.24,1.24,0,0,0-1.141.889L244.5-17.841a.694.694,0,0,0,.719.886l2.4,0a1.236,1.236,0,0,0,1.149-.882l.812-3.463a1.222,1.222,0,0,1,1.15-.885h.683a11.556,11.556,0,0,0,6.832-1.754,5.451,5.451,0,0,0,2.441-4.626,4.408,4.408,0,0,0-.456-2.1ZM255.065-26a5.165,5.165,0,0,1-3.02.763h-.6a.694.694,0,0,1-.726-.886l.718-3.028a1.22,1.22,0,0,1,1.138-.883l.787,0a3.971,3.971,0,0,1,2.081.451,1.547,1.547,0,0,1,.7,1.39,2.541,2.541,0,0,1-1.079,2.2Z" transform="translate(-244.474 33)" fill="none" clip-rule="evenodd"/>
    </clipPath>
    <clipPath id="clip-path-2">
      <path id="Path_6138" data-name="Path 6138" d="M-707,263.443H843.311V-839H-707Z" transform="translate(707 839)" fill="none"/>
    </clipPath>
    <clipPath id="clip-path-3">
      <path id="Path_6142" data-name="Path 6142" d="M246.381-29.736a1.829,1.829,0,0,0-1.337.8s-3.051,5.123-3.35,5.635c-.163.275-.328.1-.355,0-.022-.124-.945-5.6-.945-5.6a1.166,1.166,0,0,0-1.162-.817l-1.9,0a.624.624,0,0,0-.643.795s1.454,8.073,1.738,9.972c.141,1.05-.015,1.236-.015,1.236l-1.885,3.22c-.276.437-.125.794.331.794l2.2,0a1.792,1.792,0,0,0,1.333-.793l8.481-14.05s.811-1.2.063-1.19c-.51.007-2.555,0-2.555,0Zm-15.922,9.5a6.348,6.348,0,0,1-.94.471,3.471,3.471,0,0,1-1.25.265,2.849,2.849,0,0,1-1.361-.257.9.9,0,0,1-.467-.869,1.742,1.742,0,0,1,.348-1.138,2.478,2.478,0,0,1,1.02-.673,9.058,9.058,0,0,1,1.579-.344c.546-.067,1.626-.188,1.764-.19s.229-.075.168.283c-.027.156-.339,1.4-.481,1.968a1.133,1.133,0,0,1-.38.484Zm4.236-8.755a9.34,9.34,0,0,0-4.276-.743,19.343,19.343,0,0,0-2.9.221c-.713.105-.785.123-1.228.217a1.373,1.373,0,0,0-1.051,1.08l-.292,1.171c-.165.748.273.717.467.659a12.765,12.765,0,0,1,1.424-.412,10.861,10.861,0,0,1,2.246-.294,6.076,6.076,0,0,1,2.171.3,1.072,1.072,0,0,1,.724,1.058.766.766,0,0,1-.037.33c-.041.093-.118.181-.347.21-1.366.08-2.347.2-3.531.369a11.3,11.3,0,0,0-3.04.813,4.71,4.71,0,0,0-2.057,1.585A4.205,4.205,0,0,0,222.28-20a2.826,2.826,0,0,0,.977,2.208,3.732,3.732,0,0,0,2.525.843,6.962,6.962,0,0,0,1.5-.137,7.724,7.724,0,0,0,1.152-.385,6.045,6.045,0,0,0,.987-.531c.349-.227.592-.388.9-.586l.01.018-.087.375s-.006.006-.006.01l0,.006a.691.691,0,0,0,.639.872l.006.009h.04v0l1.842,0h.342a.042.042,0,0,0,.033-.012,1.241,1.241,0,0,0,1.026-.874l1.748-7.348a4.123,4.123,0,0,0,.089-.6,4.52,4.52,0,0,0,.042-.561,2.448,2.448,0,0,0-1.362-2.3Zm-10.936-1.673a3.6,3.6,0,0,0-1.318-1.375,6.042,6.042,0,0,0-2.082-.744A17.161,17.161,0,0,0,217.543-33l-5.009,0a1.24,1.24,0,0,0-1.141.889l-3.368,14.268a.694.694,0,0,0,.719.886l2.4,0a1.236,1.236,0,0,0,1.149-.882l.812-3.463a1.222,1.222,0,0,1,1.15-.885h.683a11.556,11.556,0,0,0,6.832-1.754,5.451,5.451,0,0,0,2.441-4.626,4.41,4.41,0,0,0-.457-2.1ZM218.591-26a5.165,5.165,0,0,1-3.02.763h-.6a.694.694,0,0,1-.726-.886l.718-3.028a1.22,1.22,0,0,1,1.138-.883l.787,0a3.971,3.971,0,0,1,2.081.451,1.547,1.547,0,0,1,.7,1.39,2.541,2.541,0,0,1-1.079,2.2Z" transform="translate(-208 33)" fill="none" clip-rule="evenodd"/>
    </clipPath>
  </defs>
  <g id="Group_8259" data-name="Group 8259" transform="translate(-1.311 -3.231)">
    <g id="Group_8255" data-name="Group 8255" transform="translate(0)">
      <path id="Path_6935" data-name="Path 6935" d="M4.294-7.182v-4.066H6.612a6.247,6.247,0,0,1,.988.076,2.3,2.3,0,0,1,.836.295,1.6,1.6,0,0,1,.58.617,2.17,2.17,0,0,1,.219,1.045A2.17,2.17,0,0,1,9.016-8.17a1.6,1.6,0,0,1-.58.617,2.3,2.3,0,0,1-.836.295,6.247,6.247,0,0,1-.988.076ZM1.311-13.566V0H4.294V-4.864H7.429A5.65,5.65,0,0,0,9.6-5.234a4.052,4.052,0,0,0,1.453-.978,3.746,3.746,0,0,0,.817-1.4,5.159,5.159,0,0,0,.257-1.606,5.131,5.131,0,0,0-.257-1.615,3.759,3.759,0,0,0-.817-1.387A4.052,4.052,0,0,0,9.6-13.2a5.65,5.65,0,0,0-2.166-.37ZM13.585-6.8a3.134,3.134,0,0,1,.475-1.577,3.235,3.235,0,0,1,1.064-1.007,4.637,4.637,0,0,1,1.453-.542,8.264,8.264,0,0,1,1.625-.162,11.01,11.01,0,0,1,1.5.1,4.592,4.592,0,0,1,1.387.408,2.733,2.733,0,0,1,1.026.845,2.363,2.363,0,0,1,.4,1.435v5.111a10.265,10.265,0,0,0,.076,1.273A2.3,2.3,0,0,0,22.857,0H20.121A3.871,3.871,0,0,1,20-.465a4.053,4.053,0,0,1-.067-.484,3.516,3.516,0,0,1-1.52.931,6.1,6.1,0,0,1-1.786.266A4.825,4.825,0,0,1,15.314.076,3,3,0,0,1,14.25-.456a2.476,2.476,0,0,1-.712-.912,3.083,3.083,0,0,1-.257-1.311,2.864,2.864,0,0,1,.295-1.377,2.462,2.462,0,0,1,.76-.865A3.405,3.405,0,0,1,15.4-5.405a11.358,11.358,0,0,1,1.207-.257q.608-.095,1.2-.152a7.2,7.2,0,0,0,1.045-.171,1.822,1.822,0,0,0,.722-.332.73.73,0,0,0,.247-.636,1.432,1.432,0,0,0-.142-.694,1.048,1.048,0,0,0-.38-.4,1.5,1.5,0,0,0-.551-.19,4.509,4.509,0,0,0-.674-.047,2.048,2.048,0,0,0-1.254.342,1.527,1.527,0,0,0-.532,1.14Zm6.232,2a1.21,1.21,0,0,1-.427.237,4.366,4.366,0,0,1-.551.142q-.294.057-.618.1t-.646.095a4.872,4.872,0,0,0-.6.152,1.769,1.769,0,0,0-.513.257,1.219,1.219,0,0,0-.352.408,1.314,1.314,0,0,0-.133.627,1.269,1.269,0,0,0,.133.608,1.02,1.02,0,0,0,.361.39,1.524,1.524,0,0,0,.532.2,3.4,3.4,0,0,0,.627.057A2.385,2.385,0,0,0,18.867-1.8a1.779,1.779,0,0,0,.646-.637,2.036,2.036,0,0,0,.257-.75,5.156,5.156,0,0,0,.047-.608ZM29.45,1.216l4.1-11.039H30.761L28.614-3.1h-.038L26.353-9.823H23.484L26.923-.608A1.622,1.622,0,0,1,27.037,0a1.347,1.347,0,0,1-.257.8,1.048,1.048,0,0,1-.788.418,5.6,5.6,0,0,1-.8-.019l-.779-.076V3.344q.418.038.826.067t.826.028a3.913,3.913,0,0,0,2.166-.513A3.322,3.322,0,0,0,29.45,1.216ZM50.977,0l3.1-9.823H51.3l-1.805,6.65h-.038l-1.672-6.65H45.163L43.529-3.154h-.038L41.686-9.823h-2.85L41.952,0h2.793l1.672-6.593h.038L48.2,0Zm7.011-11.343v-2.223h-2.7v2.223Zm-2.7,1.52V0h2.7V-9.823Zm8.246,0v-2.945h-2.7v2.945H59.2v1.805h1.634v5.795a2.51,2.51,0,0,0,.247,1.2,1.76,1.76,0,0,0,.674.7,2.8,2.8,0,0,0,.988.333,7.876,7.876,0,0,0,1.188.085q.4,0,.817-.019A6.42,6.42,0,0,0,65.512,0V-2.09a3.78,3.78,0,0,1-.4.057q-.209.019-.437.019a1.32,1.32,0,0,1-.912-.228,1.32,1.32,0,0,1-.228-.912V-8.018h1.976V-9.823ZM66.8-13.566V0h2.7V-5.149A3.644,3.644,0,0,1,70-7.306a1.869,1.869,0,0,1,1.6-.655,1.472,1.472,0,0,1,1.349.6,3.442,3.442,0,0,1,.38,1.814V0h2.7V-6.042A7.917,7.917,0,0,0,75.857-7.7,3.162,3.162,0,0,0,75.3-8.977,2.634,2.634,0,0,0,74.2-9.795a4.582,4.582,0,0,0-1.776-.295,3.538,3.538,0,0,0-1.558.39,3.124,3.124,0,0,0-1.311,1.245H69.5v-5.111Z" transform="translate(0 19)" fill="#213854"/>
    </g>
    <g id="Group_8258" data-name="Group 8258" transform="translate(85.052 3.23)">
      <g id="Group_8252" data-name="Group 8252" transform="translate(39.268)" clip-path="url(#clip-path)">
        <g id="Group_8251" data-name="Group 8251" transform="translate(-1024.361 -867.743)" clip-path="url(#clip-path-2)">
          <path id="Path_6137" data-name="Path 6137" d="M239.474-11.178h44.549V-38H239.474Z" transform="translate(779.504 900.36)" fill="#306ec4"/>
        </g>
      </g>
      <g id="Group_8254" data-name="Group 8254" transform="translate(0)" clip-path="url(#clip-path-3)">
        <g id="Group_8253" data-name="Group 8253" transform="translate(-985.093 -867.743)" clip-path="url(#clip-path-2)">
          <path id="Path_6140" data-name="Path 6140" d="M203-7.935h52.019V-38H203Z" transform="translate(776.71 900.36)" fill="#255597"/>
        </g>
      </g>
    </g>
  </g>
</svg>
