<svg xmlns="http://www.w3.org/2000/svg" width="65.265" height="76.179" viewBox="0 0 65.265 76.179">
  <g id="Group_6294" data-name="Group 6294" transform="translate(0 0)">
    <path id="Path_5713" data-name="Path 5713" d="M516.526,281.307,472.15,248.9a5.608,5.608,0,0,0-3.33-1.1,5.681,5.681,0,0,0-5.691,5.684v6.266l1.862,1.362v-7.628a3.834,3.834,0,0,1,3.829-3.821,3.763,3.763,0,0,1,2.227.744l44.376,32.4a3.808,3.808,0,0,1,0,6.154l-44.376,32.412a3.751,3.751,0,0,1-2.22.737,3.834,3.834,0,0,1-3.836-3.813v-7.628l-1.862,1.362V318.3a5.67,5.67,0,0,0,9.021,4.581l44.376-32.412A5.676,5.676,0,0,0,516.526,281.307Z" transform="translate(-453.586 -247.799)" fill="#fff"/>
    <path id="Path_5714" data-name="Path 5714" d="M467.942,256.279l-1.862-1.362-.523-.381a5.6,5.6,0,0,0-3.323-1.1,5.683,5.683,0,0,0-5.7,5.684v48.5a5.677,5.677,0,0,0,5.7,5.677,5.6,5.6,0,0,0,3.323-1.1l.523-.381,1.862-1.362v-2.3l-1.862,1.362-1.625,1.186a3.751,3.751,0,0,1-2.221.737,3.834,3.834,0,0,1-3.835-3.815v-48.5a3.835,3.835,0,0,1,3.835-3.822,3.749,3.749,0,0,1,2.221.746l1.625,1.184,1.862,1.362v-2.3l30.415,22.207Z" transform="translate(-456.537 -245.276)" fill="#fff"/>
    <path id="Path_5715" data-name="Path 5715" d="M463.129,311.353l1.862-1.362v-2.3l-1.862,1.362Zm0-56.89v2.3l1.862,1.362v-2.309Z" transform="translate(-453.586 -244.815)" fill="#fff"/>
    <path id="Path_5716" data-name="Path 5716" d="M495.979,286.52l-.746.544-30.818,22.5v-2.3l29.724-21.707a3.81,3.81,0,0,0,0-6.154l-29.724-21.7v-2.3l30.415,22.207.4.291.746.544A5,5,0,0,1,495.979,286.52Z" transform="translate(-453.01 -244.394)" fill="#fff"/>
  </g>
</svg>
