<svg id="Group_8879" data-name="Group 8879" xmlns="http://www.w3.org/2000/svg" width="27.398" height="18.238" viewBox="0 0 27.398 18.238">
  <g id="Group_8225" data-name="Group 8225" transform="translate(0)">
    <path id="Path_6494" data-name="Path 6494" d="M15.562,4.516A11.264,11.264,0,0,0,6.75,8.723l4.812-.645.334,2.493-7.48,1a1.279,1.279,0,0,1-.167.011A1.258,1.258,0,0,1,3,10.494L2,3.014,4.494,2.68l.557,4.161A13.835,13.835,0,0,1,29.4,15.836H26.883A11.333,11.333,0,0,0,15.562,4.516Z" transform="translate(-2 -2)" fill="#fff"/>
    <ellipse id="Ellipse_488" data-name="Ellipse 488" cx="4.402" cy="4.402" rx="4.402" ry="4.402" transform="translate(10.427 9.434)" fill="#fff"/>
  </g>
</svg>
