<svg xmlns="http://www.w3.org/2000/svg" width="16.004" height="16.004" viewBox="0 0 16.004 16.004">
  <path id="Path_5779" data-name="Path 5779" d="M4.8,12.8a1.6,1.6,0,1,0,1.6,1.6A1.605,1.605,0,0,0,4.8,12.8ZM0,0V1.6H1.6L4.481,7.682,3.361,9.6a2.843,2.843,0,0,0-.16.8A1.605,1.605,0,0,0,4.8,12h9.6V10.4H5.121a.172.172,0,0,1-.16-.16v-.08l.72-1.36H11.6a1.459,1.459,0,0,0,1.36-.8l2.881-5.2A.441.441,0,0,0,16,2.4a.756.756,0,0,0-.8-.8H3.361L2.641,0ZM12.8,12.8a1.6,1.6,0,1,0,1.6,1.6A1.605,1.605,0,0,0,12.8,12.8Z" transform="translate(0 0)" fill="#fff"/>
</svg>
