<svg xmlns="http://www.w3.org/2000/svg" width="18.557" height="17.014" viewBox="0 0 18.557 17.014">
    <defs>
        <style>
            .cls-1{fill:#fff}
        </style>
    </defs>
    <g id="sound" transform="translate(0 -1.001)">
        <path id="Path_64" d="M11.173 1.081a.778.778 0 0 0-.81.073L4.383 5.64H.773A.773.773 0 0 0 0 6.414V12.6a.773.773 0 0 0 .773.773h3.61l5.981 4.486a.77.77 0 0 0 .464.155.772.772 0 0 0 .773-.773V1.774a.774.774 0 0 0-.428-.693z" class="cls-1" data-name="Path 64"/>
        <path id="Path_65" d="M17.762 7.6l-.547-.547-1.093 1.092.547.547a3.1 3.1 0 0 1 0 4.374l-.547.547 1.094 1.094.547-.547a4.645 4.645 0 0 0-.001-6.56z" class="cls-1" data-name="Path 65" transform="translate(-3.654 -1.371)"/>
        <path id="Path_66" d="M20.044 4.222L18.95 5.316l.547.547a6.2 6.2 0 0 1 0 8.75l-.547.547 1.094 1.094.547-.547a7.743 7.743 0 0 0 0-10.938z" class="cls-1" data-name="Path 66" transform="translate(-4.294 -.73)"/>
    </g>
</svg>
