<svg xmlns="http://www.w3.org/2000/svg" width="17.82" height="16.997" viewBox="0 0 17.82 16.997">
  <g id="iconfinder_star_216411" transform="translate(0)">
    <g id="Group_6618" data-name="Group 6618">
      <path id="Path_5799" data-name="Path 5799" d="M9.745,9.5l-5.621.623a.537.537,0,0,0-.449.366.528.528,0,0,0,.149.556c1.671,1.525,4.182,3.808,4.182,3.808s-.689,3.322-1.146,5.538a.538.538,0,0,0,.209.54.53.53,0,0,0,.574.03c1.968-1.118,4.915-2.8,4.915-2.8l4.913,2.8a.532.532,0,0,0,.785-.57l-1.143-5.539s2.511-2.283,4.182-3.805a.538.538,0,0,0,.149-.559A.532.532,0,0,0,21,10.127c-2.249-.252-5.622-.625-5.622-.625L13.044,4.348a.54.54,0,0,0-.487-.314.532.532,0,0,0-.483.314Z" transform="translate(-3.649 -4.034)" fill="#b9b9b9"/>
    </g>
  </g>
</svg>
