<svg xmlns="http://www.w3.org/2000/svg" width="11.864" height="11.316" viewBox="0 0 11.864 11.316">
  <path id="Path_5799" data-name="Path 5799" d="M7.707,7.674l-3.742.415a.358.358,0,0,0-.3.244.352.352,0,0,0,.1.37c1.112,1.015,2.784,2.535,2.784,2.535s-.459,2.211-.763,3.687a.358.358,0,0,0,.139.359.353.353,0,0,0,.382.02c1.31-.744,3.272-1.864,3.272-1.864L12.85,15.3a.354.354,0,0,0,.523-.379c-.3-1.476-.761-3.687-.761-3.687L15.4,8.7a.358.358,0,0,0,.1-.372.354.354,0,0,0-.3-.242c-1.5-.168-3.743-.416-3.743-.416L9.9,4.243a.359.359,0,0,0-.324-.209.354.354,0,0,0-.322.209C8.637,5.615,7.707,7.674,7.707,7.674Z" transform="translate(-3.649 -4.034)" fill="#ffa200"/>
</svg>
