<svg xmlns="http://www.w3.org/2000/svg" width="21.931" height="21.246" viewBox="0 0 21.931 21.246">
    <defs>
        <style>
            .cls-1{fill:#0e273b}
        </style>
    </defs>
    <path id="Path_5888" d="M21.5 46.524l7.77-7.828a2.134 2.134 0 0 0 .7-1.461v-4.817l-.947.544v2.6a2.7 2.7 0 0 1-1.054 1.922c-1.014 1-7.732 7.765-7.732 7.765l1.26 1.278zm2.193-14.4s1.546-6.747 4.621-6.843a3.27 3.27 0 0 1 3.612 3.7 3.89 3.89 0 0 1-2.9 3.261v-1.235s1.79-.483 1.8-2.066c0-1.224-.669-2.813-2.513-2.609-2.177.239-3.728 6.4-3.728 6.4l-.324.327-.568-.938zm3.209-3.5h.853v6.685a2.319 2.319 0 0 1-.649 1.264l-9.889 9.865L10 39.105s8.795-8.806 9.768-9.784c.689-.694 1.135-.694 1.135-.694h5.158l-1.179 3 .125.582a3.133 3.133 0 0 1 .031.618 1.137 1.137 0 0 1-1.1.873 1.185 1.185 0 0 1-1.161-1.168 1.308 1.308 0 0 1 .9-1.1l.333-1.1c-1.459.3-2.233 1.238-2.233 2.224a2.18 2.18 0 1 0 4.359 0 2.9 2.9 0 0 0-.21-.956 7.031 7.031 0 0 1 .586-2.083l.392-.9z" class="cls-1" data-name="Path 5888" transform="translate(-10 -25.277)"/>
</svg>
