<svg xmlns="http://www.w3.org/2000/svg" width="32.001" height="32" viewBox="0 0 32.001 32">
  <g id="circle-09" transform="translate(0)">
    <path id="Path_5834" data-name="Path 5834" d="M16.757.018a16,16,0,1,0-1.513,31.964c.256.013.51.018.765.018A16,16,0,0,0,16.757.018ZM15.338,29.984a13.938,13.938,0,0,1-8.717-3.6c.539-2.335,2.255-3.211,4.607-3.995a4.093,4.093,0,0,0,2.53-2.827A6.006,6.006,0,0,1,10,14V12a6,6,0,0,1,12,0v2a6.006,6.006,0,0,1-3.759,5.562,4.1,4.1,0,0,0,2.532,2.826c2.352.784,4.055,1.67,4.59,4.007A13.9,13.9,0,0,1,15.338,29.984Z" fill="#ebeae9"/>
  </g>
</svg>
