<svg xmlns="http://www.w3.org/2000/svg" width="148.32" height="46.969" viewBox="0 0 148.32 46.969">
  <g id="if_social_visa_406088" transform="translate(0 0)">
    <path id="Path_7" data-name="Path 7" d="M-791.014,845.3-801.1,891.046h12.226l9.781-45.746Z" transform="translate(852.787 -844.383)" fill="#333"/>
    <path id="Path_8" data-name="Path 8" d="M-773.985,845.5l-12.532,31-5.2-26.484a5.482,5.482,0,0,0-5.5-4.514h-20.479l-.306,1.2a55.023,55.023,0,0,1,11.921,3.912c1.833.9,2.14,1.806,2.751,3.913l9.475,36.416h12.838l19.562-45.746h-12.532Z" transform="translate(818 -844.589)" fill="#333"/>
    <path id="Path_9" data-name="Path 9" d="M-749.877,845.3H-760.27a5.357,5.357,0,0,0-5.2,3.31L-783.5,891.046h12.532l2.445-6.922h15.283l1.528,6.922h11Zm-14.672,29.493,6.419-17.154,3.668,17.154Z" transform="translate(889.028 -844.383)" fill="#333"/>
    <path id="Path_10" data-name="Path 10" d="M-776.977,858.549c0-1.506,1.528-3.312,5.2-3.914a22.959,22.959,0,0,1,11.921,2.107l2.14-9.634A35.878,35.878,0,0,0-769.03,845c-11.921,0-20.174,6.323-20.174,15.054,0,6.624,6.113,10.237,10.393,12.344,4.585,2.107,6.113,3.612,6.113,5.72,0,3.011-3.668,4.516-7.336,4.516a23.08,23.08,0,0,1-12.227-3.011l-2.14,9.936a36.878,36.878,0,0,0,13.449,2.408c12.532,0,20.785-6.021,20.785-15.656C-760.166,864.871-777.283,863.968-776.977,858.549Z" transform="translate(866.585 -845)" fill="#333"/>
  </g>
</svg>
