<svg xmlns="http://www.w3.org/2000/svg" width="90" height="90" viewBox="0 0 90 90">
  <g id="Bag-Btn" transform="translate(-716.086 -379.79)">
    <path id="Path_7241" data-name="Path 7241" d="M771.558,415.245a1.308,1.308,0,0,1-1.309-1.309v-6.545H751.923v6.545a1.309,1.309,0,1,1-2.618,0v-6.545h-9.163v41.888H782.03V407.391h-9.163v6.545A1.309,1.309,0,0,1,771.558,415.245Z" fill="#fff"/>
    <path id="Path_7242" data-name="Path 7242" d="M770.249,403.464a9.163,9.163,0,1,0-18.326,0v1.305h18.326Z" fill="#fff"/>
    <path id="Path_7243" data-name="Path 7243" d="M761.086,379.79a45,45,0,1,0,45,45A45,45,0,0,0,761.086,379.79Zm23.562,70.8a1.308,1.308,0,0,1-1.309,1.308H738.833a1.308,1.308,0,0,1-1.309-1.308V406.082a1.308,1.308,0,0,1,1.309-1.309H749.3v-1.309a11.781,11.781,0,0,1,23.562,0v1.313h10.472a1.308,1.308,0,0,1,1.309,1.309Z" fill="#fff"/>
  </g>
</svg>
