<svg id="Bag-Btn" xmlns="http://www.w3.org/2000/svg" width="90" height="90" viewBox="0 0 90 90">
  <g id="Bag-Btn-Hover">
    <path id="Exclusion_1" data-name="Exclusion 1" d="M-4695-334.5h-50v-37.4a.1.1,0,0,1,.1-.1h34.4v7.924h2.979V-372h12.423a.1.1,0,0,1,.1.1v37.4Zm-37.486-37.5h0v7.966h2.979V-372Z" transform="translate(4765 404)" fill="#fff"/>
    <path id="Path_7249" data-name="Path 7249" d="M35.5,29.5h19v-5c0-3.9-2.1-8.8-8.2-9.4A5.7,5.7,0,0,0,45,15a10.377,10.377,0,0,0-5.3,1.3,9.3,9.3,0,0,0-2.3,2.1,10,10,0,0,0-1.9,6.1Z" fill="#fff"/>
    <path id="Path_7250" data-name="Path 7250" d="M45,0A45,45,0,1,0,90,45,44.94,44.94,0,0,0,45,0ZM72.5,69.5v.6c0,.1-.1.2-.1.4v.1c0,.1-.1.2-.2.4v.1l-.3.3h0c-.1.1-.2.2-.3.2h-.1c-.1.1-.2.1-.3.2h-.1c-.1,0-.2.1-.4.1H19.3a2.091,2.091,0,0,1-1.3-.7,4.552,4.552,0,0,1-.5-2h0V31.7A2.576,2.576,0,0,1,20,29.5H32.5v-5A12.5,12.5,0,0,1,45,12h0A12.5,12.5,0,0,1,57.5,24.5v5H70a.9.9,0,0,1,.5.1,2.556,2.556,0,0,1,2,2.2V69.5Z" fill="#fff"/>
  </g>
</svg>
