<svg xmlns="http://www.w3.org/2000/svg" xmlns:xlink="http://www.w3.org/1999/xlink" width="96" height="96" viewBox="0 0 96 96">
  <defs>
    <clipPath id="clip-path">
      <rect id="Rectangle_2952" data-name="Rectangle 2952" width="60" height="60" transform="translate(690 704)" fill="none" stroke="#fff" stroke-width="1"/>
    </clipPath>
  </defs>
  <g id="Bag-Btn" transform="translate(3 3)">
    <g id="Bag-Btn-2" data-name="Bag-Btn" transform="translate(-675 -692)">
      <g id="Bg" transform="translate(675 692)" fill="none" stroke="#fff" stroke-width="3">
        <circle cx="45" cy="45" r="45" stroke="none"/>
        <circle cx="45" cy="45" r="46.5" fill="none"/>
      </g>
      <g id="Bag-Icon" clip-path="url(#clip-path)">
        <g id="shopping-bag" transform="translate(692.499 704)">
          <g id="Path_7282" data-name="Path 7282" transform="translate(-2.5)" fill="none">
            <path d="M57.5,56.746v-37A2.657,2.657,0,0,0,55,17.5H42.5v-5a12.5,12.5,0,1,0-25,0v5H5a2.657,2.657,0,0,0-2.5,2.25v37.5a4.71,4.71,0,0,0,.5,2A2.837,2.837,0,0,0,5,60H55a2.362,2.362,0,0,0,2.5-2.5ZM20.5,12.5C20.5,8.357,22.9,3,30,3s9.5,5.358,9.5,9.5v5h-19Z" stroke="none"/>
            <path d="M 54.99623870849609 57.49574279785156 L 54.99605941772461 57.49574279785156 L 54.99605941772461 56.74595642089844 L 54.99641799926758 20.05953598022461 C 54.97343063354492 20.02861213684082 54.939453125 20.00648880004883 54.90067672729492 19.99875450134277 L 42.49711990356445 19.99875450134277 L 41.99747848510742 19.99875450134277 L 39.49747848510742 19.99875450134277 L 20.4985408782959 19.99875450134277 L 17.9985408782959 19.99875450134277 L 17.49889945983887 19.99875450134277 L 5.095345497131348 19.99875450134277 C 5.056578636169434 20.00649070739746 5.02259635925293 20.02861022949219 4.999613285064697 20.05952644348145 L 4.999959945678711 57.20960998535156 C 5.003383636474609 57.30532836914062 5.013174533843994 57.40102005004883 5.029101848602295 57.49573516845703 L 54.99623870849609 57.49574279785156 M 55.13811874389648 60.00000762939453 C 55.09097290039062 60.00000381469727 55.0435905456543 59.99859237670898 54.99623870849609 59.99574279785156 L 4.999790191650391 59.99573516845703 C 4.974085330963135 59.99643325805664 4.948432922363281 59.99678039550781 4.922786235809326 59.99678039550781 C 4.211243152618408 59.99678039550781 3.52451229095459 59.72927856445312 2.999930381774902 59.24579620361328 C 2.687640190124512 58.62426376342773 2.516900300979614 57.9412841796875 2.49996018409729 57.24593353271484 L 2.499610185623169 19.74859428405762 C 2.69195032119751 18.49966430664062 3.737210273742676 17.55892372131348 4.999430179595947 17.49875450134277 L 17.49889945983887 17.49875450134277 L 17.49889945983887 12.49911499023438 C 17.49889945983887 5.596044540405273 23.09494018554688 4.60754381492734e-06 29.99801063537598 4.60754381492734e-06 C 36.90108108520508 -5.392455932451412e-06 42.49711990356445 5.596044540405273 42.49711990356445 12.49911499023438 L 42.49711990356445 17.49875450134277 L 54.99658966064453 17.49875450134277 C 56.25881958007812 17.55892372131348 57.30406951904297 18.49966430664062 57.49642181396484 19.74859428405762 L 57.49605941772461 56.74597549438477 L 57.49605941772461 57.49591445922852 C 57.5366096496582 58.17053604125977 57.28628921508789 58.83020401000977 56.80841064453125 59.3080940246582 C 56.36406326293945 59.75243377685547 55.76266098022461 60.00003433227539 55.13811874389648 60.00000762939453 Z M 29.99801063537598 2.99964451789856 C 22.90356063842773 2.99964451789856 20.4985408782959 8.357275009155273 20.4985408782959 12.49911499023438 L 20.4985408782959 17.49875450134277 L 39.49747848510742 17.49875450134277 L 39.49747848510742 12.49911499023438 C 39.49747848510742 8.357275009155273 37.09247207641602 2.99964451789856 29.99801063537598 2.99964451789856 Z" stroke="none" fill="#fff"/>
          </g>
          <path id="Path_7283" data-name="Path 7283" d="M9.008,20.958V10.515h2.979V20.958Z" transform="translate(6.006 7.01)" fill="#fff"/>
          <path id="Path_7284" data-name="Path 7284" d="M9.2,20.9V10.513h2.979V20.9Z" transform="translate(27.799 7.008)" fill="#fff"/>
        </g>
      </g>
    </g>
  </g>
</svg>
