<svg id="Next" xmlns="http://www.w3.org/2000/svg" width="27" height="18" viewBox="0 0 27 18">
  <path id="Path_6494" data-name="Path 6494" d="M15.635,4.472a11.111,11.111,0,0,1,8.684,4.135l-4.742-.633-.329,2.451,7.371.985a1.264,1.264,0,0,0,.165.011,1.239,1.239,0,0,0,1.229-1.072L29,3l-2.457-.328-.549,4.089A13.642,13.642,0,0,0,2,15.6H4.479A11.153,11.153,0,0,1,15.635,4.472Z" transform="translate(-2 -2)" fill="#fff"/>
  <ellipse id="Ellipse_488" data-name="Ellipse 488" cx="4.402" cy="4.402" rx="4.402" ry="4.402" transform="translate(7.992 9.195)" fill="#fff"/>
</svg>
