<svg xmlns="http://www.w3.org/2000/svg" width="20.571" height="24" viewBox="0 0 20.571 24">
  <path id="Vibuy-Icon" d="M-3781.583-993.734a1.79,1.79,0,0,1-.525-1.267v-1.251l-.166.12a1.768,1.768,0,0,1-1.047.352,1.791,1.791,0,0,1-1.269-.523,1.786,1.786,0,0,1-.525-1.268v-15.281a1.782,1.782,0,0,1,.525-1.267,1.789,1.789,0,0,1,1.269-.523,1.774,1.774,0,0,1,1.047.346l.166.12v-1.247a1.79,1.79,0,0,1,.525-1.267,1.787,1.787,0,0,1,1.269-.522,1.758,1.758,0,0,1,1.048.346l13.989,10.208a1.791,1.791,0,0,1,.733,1.444,1.79,1.79,0,0,1-.733,1.444l-13.989,10.207a1.754,1.754,0,0,1-1.048.352h0A1.789,1.789,0,0,1-3781.583-993.734Zm1.309-2.217a.433.433,0,0,0,.238.386.437.437,0,0,0,.452-.036l12.693-9.264a.433.433,0,0,0,.178-.349.434.434,0,0,0-.178-.35l-12.693-9.263a.435.435,0,0,0-.453-.037.432.432,0,0,0-.237.386v1.641l8.467,6.18a1.787,1.787,0,0,1,.734,1.444,1.787,1.787,0,0,1-.734,1.443l-8.467,6.178Zm-2.771-16.344a.433.433,0,0,0-.237.386v13.394a.431.431,0,0,0,.236.386.435.435,0,0,0,.452-.035l.485-.35h0l1.834-1.325v0l6.908-4.986a.436.436,0,0,0,.179-.35.432.432,0,0,0-.179-.35l-9.227-6.734a.431.431,0,0,0-.256-.084A.433.433,0,0,0-3783.045-1012.294Z" transform="translate(3785.116 1017.211)" fill="#fff"/>
</svg>
