<svg xmlns="http://www.w3.org/2000/svg" width="24" height="24" viewBox="0 0 24 24">
  <g id="Vibuy-Glphy" transform="translate(-1685.272 -1044.524)">
    <rect id="Rectangle_2941" data-name="Rectangle 2941" width="24" height="24" transform="translate(1685.272 1044.524)" fill="none"/>
    <path id="Icon" d="M-7811.99,4502.4a2.959,2.959,0,0,0,.555-.318l10.461-7.639.042-.031.185-.134a2.8,2.8,0,0,0,1.15-2.272,2.784,2.784,0,0,0-1.15-2.272l-4.131-3.022-6.557-4.791a3.017,3.017,0,0,0-.555-.319,1.783,1.783,0,0,1,2.827-1.254l13.976,10.209a1.79,1.79,0,0,1,0,2.889l-13.976,10.209a1.751,1.751,0,0,1-1.044.347A1.789,1.789,0,0,1-7811.99,4502.4Zm-3.011-2.755v-15.288a1.782,1.782,0,0,1,2.836-1.439l6.557,4.791,4.131,3.022a1.574,1.574,0,0,1,.01,2.539l-.236.175-10.462,7.639a1.764,1.764,0,0,1-1.048.348A1.785,1.785,0,0,1-7815,4499.644Z" transform="translate(9502 -3435.476)" fill="#fff"/>
  </g>
</svg>
