<?xml version="1.0" encoding="UTF-8"?>
<svg width="43px" height="51px" viewBox="0 0 43 51" version="1.1" xmlns="http://www.w3.org/2000/svg" xmlns:xlink="http://www.w3.org/1999/xlink">
    <!-- Generator: Sketch 59 (86127) - https://sketch.com -->
    <title>Icon</title>
    <desc>Created with Sketch.</desc>
    <g id="Symbols" stroke="none" stroke-width="1" fill="none" fill-rule="evenodd">
        <g id="Vibuy/Logo/Colored" transform="translate(-113.000000, 0.000000)" fill-rule="nonzero">
            <g id="Vibuy-Logo">
                <g id="Icon" transform="translate(113.000000, 0.000000)">
                    <path d="M41.4555374,22.4333931 L11.9875588,0.730288743 C10.8422618,-0.112600458 9.3245511,-0.235586219 8.06044931,0.412060407 C6.79634752,1.05970703 6,2.36824816 6,3.79793907 L6,47.2020609 C6,48.6317518 6.79634752,49.940293 8.06044931,50.5879396 C9.3245511,51.2355862 10.8422618,51.1126005 11.9875588,50.2697113 L41.4555374,28.5666069 C42.4261873,27.8514701 43,26.7121366 43,25.5 C43,24.2878634 42.4261873,23.1485299 41.4555374,22.4333931 L41.4555374,22.4333931 Z" id="Path" fill="#00ACD8"></path>
                    <path d="M27.4859387,21.9395674 L5.8696996,5.72906644 C4.74694665,4.887588 3.25911058,4.76480809 2.0198914,5.41137073 C0.780672208,6.05793338 0,7.36428437 0,8.79158237 L0,41.2084176 C0,42.6357156 0.780672208,43.9420666 2.0198914,44.5886293 C3.25911058,45.2351919 4.74694665,45.112412 5.8696996,44.2709336 L27.4859387,28.0625159 C28.4374822,27.3485761 29,26.2111495 29,25.0010417 C29,23.7909339 28.4374822,22.6535073 27.4859387,21.9395674 L27.4859387,21.9395674 Z" id="Path" fill="#5C0F8B"></path>
                    <path d="M28.6010539,22.3041525 L6,6 L6,44 L28.6010539,27.7062562 C29.4795413,27.0801381 30,26.0752488 30,25.0052043 C30,23.9351599 29.4795413,22.9302706 28.6010539,22.3041525 Z" id="Path" fill="#12284C"></path>
                </g>
            </g>
        </g>
    </g>
</svg>