<svg id="Group_6294" data-name="Group 6294" xmlns="http://www.w3.org/2000/svg" width="20.703" height="24.164" viewBox="0 0 20.703 24.164">
  <path id="Path_5713" data-name="Path 5713" d="M480.067,258.428,465.99,248.149a1.779,1.779,0,0,0-1.056-.35,1.8,1.8,0,0,0-1.805,1.8v1.988l.591.432V249.6a1.216,1.216,0,0,1,1.215-1.212,1.194,1.194,0,0,1,.706.236L479.717,258.9a1.208,1.208,0,0,1,0,1.952l-14.076,10.281a1.189,1.189,0,0,1-.7.234,1.216,1.216,0,0,1-1.217-1.21v-2.42l-.591.432v1.988a1.8,1.8,0,0,0,2.861,1.453l14.076-10.281A1.8,1.8,0,0,0,480.067,258.428Z" transform="translate(-460.102 -247.799)" fill="#fff"/>
  <path id="Path_5714" data-name="Path 5714" d="M460.155,254.336l-.591-.432-.166-.121a1.776,1.776,0,0,0-1.054-.349,1.8,1.8,0,0,0-1.807,1.8v15.385a1.8,1.8,0,0,0,1.807,1.8,1.776,1.776,0,0,0,1.054-.349l.166-.121.591-.432v-.73l-.591.432-.515.376a1.19,1.19,0,0,1-.7.234,1.216,1.216,0,0,1-1.216-1.21V255.237a1.217,1.217,0,0,1,1.216-1.212,1.189,1.189,0,0,1,.7.236l.515.376.591.432v-.73l9.648,7.044Z" transform="translate(-456.537 -250.846)" fill="#fff"/>
  <path id="Path_5715" data-name="Path 5715" d="M463.129,272.509l.591-.432v-.73l-.591.432Zm0-18.046v.73l.591.432v-.732Z" transform="translate(-460.102 -251.403)" fill="#fff"/>
  <path id="Path_5716" data-name="Path 5716" d="M474.427,265.274l-.237.173-9.776,7.139v-.73l9.428-6.886a1.209,1.209,0,0,0,0-1.952l-9.428-6.883v-.73l9.648,7.044.128.092.237.173A1.586,1.586,0,0,1,474.427,265.274Z" transform="translate(-460.797 -251.912)" fill="#fff"/>
</svg>
